<?xml version="1.0" encoding="UTF-8" standalone="no"?>
<!DOCTYPE svg PUBLIC "-//W3C//DTD SVG 1.1//EN" "http://www.w3.org/Graphics/SVG/1.1/DTD/svg11.dtd">
<svg xmlns="http://www.w3.org/2000/svg" version="1.1" viewBox="0.00 0.00 1024.00 1024.00">
<g stroke-width="2.00" fill="none" stroke-linecap="butt">
<path stroke="#858f9b" vector-effect="non-scaling-stroke" d="
  M 507.04 233.45
  L 505.08 264.96
  A 0.33 0.29 26.4 0 1 504.54 265.10
  Q 504.40 264.97 498.79 256.40
  C 492.82 247.28 485.81 239.60 476.93 233.52
  A 0.86 0.86 0.0 0 0 475.59 234.14
  Q 474.99 240.56 478.20 246.61
  C 486.62 262.53 500.30 276.05 502.21 294.77
  C 503.02 302.69 502.74 312.60 501.13 321.62
  A 0.32 0.32 0.0 0 1 500.60 321.80
  L 477.47 300.03"
/>
<path stroke="#809f96" vector-effect="non-scaling-stroke" d="
  M 477.47 300.03
  Q 476.41 289.33 475.07 284.17
  C 468.55 259.04 447.79 248.18 423.46 246.39
  A 0.41 0.40 2.7 0 0 423.02 246.78
  Q 422.66 257.56 425.47 268.03
  C 430.74 287.67 445.65 299.91 465.22 304.24
  Q 466.77 304.59 469.47 306.77"
/>
<path stroke="#858f9b" vector-effect="non-scaling-stroke" d="
  M 469.47 306.77
  C 477.73 313.04 487.05 321.48 492.10 330.92
  C 495.44 337.16 496.11 342.19 495.58 349.19
  A 0.19 0.18 27.7 0 1 495.25 349.29
  C 488.39 340.76 479.13 333.96 470.07 328.43
  Q 467.94 327.13 438.14 309.86
  Q 424.42 301.91 411.62 288.55"
/>
<path stroke="#809f96" vector-effect="non-scaling-stroke" d="
  M 411.62 288.55
  C 410.04 280.52 408.59 271.21 405.70 264.36
  C 399.13 248.82 386.19 235.56 369.96 230.09
  C 357.46 225.89 346.59 225.13 333.92 226.24
  A 0.42 0.41 87.8 0 0 333.54 226.66
  C 333.76 239.28 338.16 252.25 344.39 262.83
  C 355.39 281.49 374.45 291.22 395.76 292.62
  Q 399.60 292.88 403.54 293.13"
/>
<path stroke="#858f9b" vector-effect="non-scaling-stroke" d="
  M 403.54 293.13
  Q 412.51 304.61 423.31 314.17
  C 428.43 318.70 434.21 322.52 439.84 326.42
  A 0.13 0.13 0.0 0 1 439.76 326.66
  L 406.59 323.67"
/>
<path stroke="#809f96" vector-effect="non-scaling-stroke" d="
  M 406.59 323.67
  Q 403.05 320.53 395.57 312.68
  Q 377.97 294.21 351.98 297.12
  Q 335.37 298.97 321.51 307.07
  A 0.63 0.63 0.0 0 0 321.29 307.94
  C 329.30 321.31 342.01 333.32 357.08 337.65
  Q 364.82 339.87 371.25 339.83
  Q 387.44 339.72 403.09 331.96"
/>
<path stroke="#858f9b" vector-effect="non-scaling-stroke" d="
  M 403.09 331.96
  Q 418.39 333.71 432.36 337.15
  C 451.20 341.78 468.46 350.21 481.90 364.12
  Q 491.55 374.09 491.99 387.77
  C 492.26 396.01 492.23 406.78 491.77 415.84
  Q 490.20 446.80 489.61 454.74
  C 488.85 464.99 488.61 471.92 486.15 481.71
  Q 479.56 507.92 451.91 510.32
  Q 427.05 512.49 406.69 498.53
  Q 395.57 490.91 390.41 478.96
  A 0.54 0.54 0.0 0 1 391.06 478.23
  C 397.76 480.31 405.73 481.06 412.31 478.57
  C 414.91 477.59 418.11 475.28 416.54 472.19
  Q 416.01 471.14 413.25 470.09
  C 404.24 466.65 396.43 461.91 389.80 454.70
  Q 380.99 445.14 376.08 433.73
  Q 376.00 433.55 372.07 424.75
  A 1.06 1.06 0.0 0 0 370.33 424.46
  Q 361.22 434.02 359.32 447.57
  Q 357.52 460.34 359.67 471.17
  C 364.18 493.85 379.86 514.16 398.82 527.17
  C 409.62 534.58 420.86 539.77 433.22 545.14
  Q 439.79 547.98 450.10 551.91
  C 466.87 558.28 484.07 566.23 498.19 576.32
  Q 503.51 580.12 511.73 587.72
  A 0.60 0.59 45.4 0 0 512.53 587.73
  Q 515.53 585.07 519.52 581.52
  Q 527.02 574.86 536.64 569.40
  Q 552.79 560.22 571.03 553.36
  C 579.08 550.33 588.63 546.42 595.68 543.42
  Q 604.28 539.75 615.15 533.63
  C 633.58 523.26 649.28 508.41 658.45 488.91
  Q 662.75 479.76 664.22 471.09
  C 666.74 456.20 666.08 434.69 652.87 424.24
  A 0.61 0.61 0.0 0 0 651.91 424.52
  Q 647.10 438.38 638.42 450.15
  Q 628.53 463.55 610.38 470.80
  Q 608.48 471.56 608.18 471.86
  C 606.63 473.50 607.54 475.64 609.07 476.98
  C 614.60 481.87 627.18 480.48 633.77 478.40
  A 0.38 0.38 0.0 0 1 634.24 478.91
  C 628.52 492.37 616.92 501.11 603.37 506.21
  Q 590.18 511.17 575.38 510.54
  Q 564.75 510.09 557.51 506.63
  C 546.19 501.22 540.41 492.35 537.58 479.89
  Q 535.76 471.86 535.18 463.88
  C 534.33 452.27 533.66 445.17 533.40 436.70
  C 533.04 425.15 531.85 413.58 531.73 402.73
  Q 531.57 388.13 531.62 386.66
  C 532.03 375.20 538.53 366.96 546.94 359.43
  Q 559.56 348.11 575.18 342.39
  Q 595.26 335.04 620.58 331.89"
/>
<path stroke="#809f96" vector-effect="non-scaling-stroke" d="
  M 620.58 331.89
  Q 625.20 333.55 630.10 335.34
  Q 636.43 337.64 639.77 338.37
  Q 652.16 341.04 664.28 338.27
  C 680.22 334.63 694.41 322.33 702.25 308.00
  A 0.85 0.84 28.8 0 0 701.91 306.85
  C 686.73 298.70 669.16 293.99 652.29 298.31
  Q 643.13 300.66 633.76 308.21
  Q 625.49 314.88 619.39 323.63"
/>
<path stroke="#858f9b" vector-effect="non-scaling-stroke" d="
  M 619.39 323.63
  L 583.44 326.64
  A 0.30 0.30 0.0 0 1 583.26 326.09
  Q 590.87 321.51 597.70 315.92
  Q 610.44 305.50 620.78 292.48"
/>
<path stroke="#809f96" vector-effect="non-scaling-stroke" d="
  M 620.78 292.48
  Q 638.31 292.92 652.58 286.85
  Q 669.38 279.70 679.61 261.85
  C 685.26 251.98 689.51 238.88 689.74 226.83
  A 0.64 0.62 3.5 0 0 689.17 226.20
  C 672.84 224.58 654.72 227.49 641.32 236.08
  C 628.50 244.30 618.57 258.72 615.02 274.02
  Q 613.25 281.64 611.22 288.87"
/>
<path stroke="#858f9b" vector-effect="non-scaling-stroke" d="
  M 611.22 288.87
  Q 597.97 302.68 585.65 309.91
  Q 557.08 326.66 556.67 326.90
  Q 545.33 333.39 534.86 342.36
  Q 531.10 345.59 528.08 349.27
  A 0.34 0.34 0.0 0 1 527.48 349.10
  C 525.98 337.90 531.54 328.39 538.50 320.27
  Q 539.52 319.08 545.20 313.93
  Q 548.50 310.94 551.67 307.33"
/>
<path stroke="#809f96" vector-effect="non-scaling-stroke" d="
  M 551.67 307.33
  Q 563.64 303.81 574.51 298.22
  Q 581.46 294.65 585.11 291.09
  C 596.68 279.81 601.45 262.82 600.27 246.82
  A 0.30 0.30 0.0 0 0 599.96 246.54
  Q 582.59 247.09 568.08 256.27
  Q 558.16 262.54 553.74 270.75
  Q 547.05 283.17 546.03 299.56"
/>
<path stroke="#858f9b" vector-effect="non-scaling-stroke" d="
  M 546.03 299.56
  Q 531.77 311.43 528.23 314.98
  Q 525.38 317.86 522.23 321.31
  A 0.32 0.32 0.0 0 1 521.68 321.14
  Q 519.90 310.35 520.57 296.81
  C 521.37 280.90 531.14 269.56 541.31 255.07
  Q 543.45 252.02 546.50 245.73
  Q 549.21 240.16 548.22 233.67
  A 0.60 0.60 0.0 0 0 547.30 233.25
  C 539.81 238.14 532.35 245.71 527.60 252.39
  Q 524.14 257.26 518.79 265.28
  A 0.33 0.33 0.0 0 1 518.18 265.12
  L 515.74 232.25"
/>
<path stroke="#809f96" vector-effect="non-scaling-stroke" d="
  M 515.74 232.25
  Q 527.81 218.95 533.83 205.80
  Q 542.60 186.63 537.79 164.34
  C 534.24 147.85 523.61 134.45 512.16 122.68
  A 0.79 0.78 -44.2 0 0 511.04 122.67
  C 503.32 130.26 496.30 138.66 491.29 148.85
  Q 474.74 182.44 493.85 214.43
  Q 497.34 220.28 507.04 233.45"
/>
<path stroke="#062f32" vector-effect="non-scaling-stroke" d="
  M 515.74 232.25
  Q 511.61 235.24 507.04 233.45"
/>
<path stroke="#062f32" vector-effect="non-scaling-stroke" d="
  M 546.03 299.56
  Q 545.59 306.35 551.67 307.33"
/>
<path stroke="#062f32" vector-effect="non-scaling-stroke" d="
  M 619.39 323.63
  Q 618.13 327.21 620.58 331.89"
/>
<path stroke="#062f32" vector-effect="non-scaling-stroke" d="
  M 403.09 331.96
  Q 408.49 328.47 406.59 323.67"
/>
<path stroke="#062f32" vector-effect="non-scaling-stroke" d="
  M 469.47 306.77
  Q 475.52 305.58 477.47 300.03"
/>
<path stroke="#062f32" vector-effect="non-scaling-stroke" d="
  M 411.62 288.55
  Q 408.59 291.99 403.54 293.13"
/>
<path stroke="#062f32" vector-effect="non-scaling-stroke" d="
  M 620.78 292.48
  Q 614.79 292.09 611.22 288.87"
/>
<path stroke="#809f96" vector-effect="non-scaling-stroke" d="
  M 394.97 166.93
  C 393.55 176.18 395.85 186.85 398.94 196.15
  C 405.76 216.61 421.23 230.53 442.38 236.17
  Q 451.34 238.56 462.64 240.15
  A 0.32 0.32 0.0 0 0 463.01 239.88
  Q 464.96 227.13 462.02 214.49
  Q 456.15 189.29 434.54 176.70
  C 422.34 169.60 409.60 167.25 395.74 166.32
  A 0.74 0.72 6.0 0 0 394.97 166.93"
/>
<path stroke="#809f96" vector-effect="non-scaling-stroke" d="
  M 628.35 167.07
  A 0.74 0.72 -5.7 0 0 627.59 166.46
  C 613.72 167.32 600.97 169.60 588.73 176.64
  Q 567.05 189.12 561.04 214.29
  Q 558.04 226.91 559.92 239.68
  A 0.32 0.32 0.0 0 0 560.29 239.95
  Q 571.60 238.42 580.57 236.07
  C 601.76 230.54 617.30 216.70 624.23 196.28
  C 627.37 186.99 629.73 176.33 628.35 167.07"
/>
<path stroke="#809f96" vector-effect="non-scaling-stroke" d="
  M 649.67 380.57
  C 645.71 372.09 639.85 365.07 632.50 359.03
  Q 618.61 347.62 599.79 348.60
  Q 584.12 349.41 571.54 358.14
  A 0.20 0.20 0.0 0 0 571.53 358.46
  C 578.04 364.03 582.85 372.31 590.14 377.97
  C 607.43 391.41 630.07 390.17 649.31 381.53
  A 0.72 0.71 -24.4 0 0 649.67 380.57"
/>
<path stroke="#809f96" vector-effect="non-scaling-stroke" d="
  M 374.27 380.53
  A 0.72 0.72 0.0 0 0 374.63 381.49
  C 393.88 390.24 416.57 391.57 433.96 378.17
  C 441.29 372.53 446.15 364.25 452.70 358.69
  A 0.20 0.20 0.0 0 0 452.69 358.37
  Q 440.11 349.57 424.41 348.69
  Q 405.54 347.63 391.57 359.01
  C 384.18 365.03 378.27 372.05 374.27 380.53"
/>
<path stroke="#858f9b" vector-effect="non-scaling-stroke" d="
  M 276.12 645.63
  Q 275.63 646.19 273.91 650.14
  Q 268.58 662.44 255.91 692.89
  Q 248.59 710.47 241.45 724.70
  C 236.77 734.04 231.39 743.06 222.34 747.85
  C 216.52 750.92 208.09 750.41 206.52 743.03
  A 2.87 2.87 0.0 0 1 207.43 740.28
  C 209.49 738.45 211.77 737.11 211.88 734.70
  Q 212.00 732.10 210.10 730.63
  Q 205.87 727.35 200.31 730.14
  C 193.78 733.41 193.84 743.26 197.66 748.56
  C 203.71 756.93 214.96 758.28 224.46 755.48
  C 233.33 752.87 241.46 744.71 246.30 736.30
  Q 253.62 723.58 259.37 709.96
  A 0.90 0.89 -78.5 0 1 260.19 709.41
  L 298.21 709.41
  A 0.51 0.50 81.4 0 1 298.69 709.77
  Q 300.87 717.07 302.75 723.91
  C 304.51 730.36 300.11 732.47 294.73 732.96
  A 1.67 1.67 0.0 0 0 293.28 735.10
  L 293.83 736.91
  A 1.86 1.85 78.1 0 0 295.83 738.22
  Q 300.41 737.65 307.76 736.76
  Q 313.42 736.08 317.71 737.15
  Q 325.22 739.01 333.14 738.19
  A 3.09 3.08 87.0 0 0 335.90 735.12
  L 335.90 734.76
  A 2.74 2.73 87.4 0 0 332.92 732.03
  C 327.13 732.57 324.41 727.86 322.99 723.01
  Q 312.83 688.41 302.64 654.66
  C 301.51 650.89 299.88 646.62 302.55 643.82
  Q 304.95 641.28 310.24 641.46
  A 3.10 3.10 0.0 0 0 313.45 638.23
  L 313.45 638.14
  A 2.93 2.92 85.9 0 0 310.24 635.35
  Q 304.90 635.90 301.25 635.54
  Q 282.56 633.69 279.44 633.38
  Q 265.62 632.02 256.34 633.48
  C 243.68 635.46 230.32 642.82 228.17 656.64
  Q 227.46 661.20 229.02 666.75
  C 231.88 676.91 245.74 680.78 252.06 672.18
  C 253.61 670.07 253.90 667.22 252.01 665.38
  A 1.09 1.07 59.7 0 0 251.01 665.11
  L 247.39 666.02
  A 2.85 2.73 -46.3 0 1 246.27 666.07
  Q 242.32 665.43 240.56 662.14
  C 237.60 656.58 240.04 650.00 244.85 646.19
  C 253.07 639.67 267.18 637.11 276.06 644.76
  A 0.61 0.60 41.4 0 1 276.12 645.63"
/>
<path stroke="#858f9b" vector-effect="non-scaling-stroke" d="
  M 513.78 715.69
  Q 513.67 715.75 507.87 721.55
  Q 498.56 730.85 484.30 729.99
  C 472.10 729.25 463.27 719.46 460.39 708.12
  C 456.92 694.43 457.90 676.51 468.67 666.42
  Q 475.99 659.57 485.38 659.33
  C 495.27 659.09 503.61 662.24 507.76 671.77
  Q 509.22 675.14 509.97 677.55
  A 2.23 2.22 83.5 0 0 511.91 679.10
  C 514.85 679.33 516.39 678.69 515.93 675.36
  Q 515.29 670.73 514.59 658.75
  A 2.25 2.24 88.1 0 0 512.34 656.64
  Q 509.56 656.66 507.13 655.87
  C 489.03 649.98 467.45 650.95 452.42 663.32
  Q 445.17 669.29 440.91 679.32
  C 437.30 687.84 437.25 699.50 439.50 708.28
  C 445.30 730.85 466.74 741.44 489.06 738.45
  C 500.58 736.91 513.03 730.36 518.27 719.64
  A 1.65 1.65 0.0 0 0 518.27 718.20
  Q 517.32 716.21 514.88 715.55
  A 1.44 1.43 37.7 0 0 513.78 715.69"
/>
<path stroke="#858f9b" vector-effect="non-scaling-stroke" d="
  M 675.52 738.89
  C 691.11 738.41 704.65 731.84 712.84 718.75
  C 721.37 705.10 721.59 685.20 712.60 671.60
  C 703.83 658.34 688.70 651.93 672.86 652.42
  C 657.03 652.91 642.32 660.24 634.38 674.01
  C 626.24 688.13 627.69 707.98 637.04 721.08
  C 646.02 733.64 659.94 739.37 675.52 738.89"
/>
<path stroke="#858f9b" vector-effect="non-scaling-stroke" d="
  M 412.86 711.42
  L 365.35 654.29
  A 1.54 1.50 69.8 0 0 364.18 653.73
  Q 355.11 653.64 344.91 653.86
  C 342.09 653.93 339.31 654.80 340.77 658.24
  A 1.34 1.33 -7.0 0 0 341.81 659.04
  C 343.13 659.23 345.66 659.08 347.12 659.84
  Q 350.11 661.42 350.10 664.77
  Q 350.01 695.19 350.08 725.68
  C 350.09 729.88 347.20 731.61 343.53 732.12
  C 341.13 732.46 339.88 734.31 341.68 736.29
  A 2.52 2.52 0.0 0 0 343.55 737.12
  L 366.30 737.12
  A 2.93 2.92 4.8 0 0 369.19 734.68
  L 369.25 734.36
  A 1.88 1.87 -79.5 0 0 367.66 732.03
  L 362.12 731.36
  A 3.67 3.66 87.1 0 1 358.99 728.53
  Q 358.52 726.96 358.56 723.25
  Q 358.89 690.60 358.80 675.30
  A 0.22 0.22 0.0 0 1 359.20 675.16
  C 362.80 679.54 366.69 683.49 370.00 687.58
  Q 387.46 709.14 409.39 735.16
  Q 411.11 737.19 412.55 737.51
  Q 416.10 738.29 420.24 737.93
  A 2.01 1.99 87.4 0 0 422.06 735.92
  Q 421.86 710.09 422.18 671.72
  C 422.24 665.01 421.26 658.90 429.08 659.12
  A 2.04 2.04 0.0 0 0 431.16 656.82
  L 431.11 656.46
  A 2.90 2.90 0.0 0 0 428.27 653.93
  Q 416.46 653.80 404.91 653.84
  A 2.95 2.84 -80.3 0 0 402.19 655.84
  Q 401.72 657.23 403.23 658.77
  A 1.07 1.06 -26.3 0 0 404.15 659.08
  Q 404.61 659.01 407.78 659.29
  Q 413.26 659.76 413.31 665.56
  Q 413.43 678.70 413.31 711.26
  A 0.25 0.25 0.0 0 1 412.86 711.42"
/>
<path stroke="#858f9b" vector-effect="non-scaling-stroke" d="
  M 557.35 696.89
  L 594.08 696.89
  A 0.54 0.54 0.0 0 1 594.62 697.41
  Q 594.79 702.89 594.75 718.37
  C 594.74 721.86 595.81 730.49 590.98 731.46
  Q 590.69 731.52 587.00 732.02
  A 2.01 2.01 0.0 0 0 585.27 734.01
  L 585.27 734.55
  A 2.56 2.55 0.3 0 0 587.80 737.10
  Q 604.20 737.26 620.14 737.01
  A 2.69 2.68 4.6 0 0 622.74 734.81
  Q 622.94 733.69 622.12 732.42
  A 1.16 1.15 77.0 0 0 621.31 731.91
  C 620.04 731.76 617.53 732.07 615.93 731.09
  Q 613.36 729.49 613.36 726.06
  Q 613.28 692.40 613.39 663.69
  A 2.56 2.50 56.5 0 1 613.55 662.86
  C 614.80 659.56 617.08 659.08 620.58 659.04
  A 2.15 2.14 -4.6 0 0 622.67 656.59
  L 622.62 656.20
  A 2.76 2.76 0.0 0 0 619.87 653.78
  L 587.97 653.84
  A 2.76 2.75 -85.8 0 0 585.25 656.19
  L 585.23 656.31
  A 2.33 2.33 0.0 0 0 587.27 659.02
  C 590.91 659.42 594.58 659.27 594.72 664.25
  Q 594.87 669.54 594.79 688.89
  A 0.55 0.55 0.0 0 1 594.24 689.44
  L 557.40 689.44
  A 0.45 0.45 0.0 0 1 556.95 688.99
  Q 556.86 675.80 556.93 663.76
  C 556.96 658.78 561.34 659.27 564.76 658.91
  A 1.99 1.99 0.0 0 0 566.55 656.93
  L 566.55 656.29
  A 2.56 2.56 0.0 0 0 563.96 653.73
  Q 549.46 653.87 532.58 653.78
  C 529.66 653.77 526.93 655.77 529.39 658.69
  A 1.12 1.11 68.3 0 0 530.27 659.07
  C 533.77 658.89 537.49 659.58 537.58 663.77
  Q 537.81 673.61 537.65 724.54
  C 537.64 730.29 535.92 731.50 530.44 731.83
  A 1.31 1.28 -70.2 0 0 529.55 732.26
  C 527.67 734.36 529.51 737.22 532.01 737.20
  Q 557.50 737.04 563.86 737.13
  A 2.74 2.73 -84.6 0 0 566.60 734.86
  L 566.64 734.62
  A 2.37 2.36 9.9 0 0 564.72 731.89
  C 563.17 731.62 561.21 732.02 559.32 731.09
  C 556.70 729.80 556.98 726.29 556.98 723.34
  Q 556.98 714.99 556.94 697.30
  A 0.41 0.41 0.0 0 1 557.35 696.89"
/>
<path stroke="#858f9b" vector-effect="non-scaling-stroke" d="
  M 777.89 701.24
  A 0.52 0.52 0.0 0 1 778.06 700.31
  C 790.18 696.96 799.01 689.86 798.30 676.81
  C 797.95 670.42 795.81 665.65 790.94 661.76
  Q 783.62 655.91 773.45 654.80
  Q 764.60 653.84 762.24 653.82
  Q 751.61 653.75 727.61 653.85
  A 3.11 3.11 0.0 0 0 724.58 656.33
  L 724.56 656.44
  A 2.11 2.11 0.0 0 0 726.58 658.98
  Q 733.34 659.16 733.37 663.50
  Q 733.55 694.90 733.42 726.24
  Q 733.39 731.60 726.43 732.08
  A 1.94 1.94 0.0 0 0 724.72 734.60
  L 724.79 734.89
  A 3.03 3.02 -7.3 0 0 727.72 737.15
  L 759.17 737.15
  A 3.21 3.20 7.7 0 0 762.26 734.80
  L 762.33 734.55
  A 2.20 2.19 -78.5 0 0 760.54 731.84
  C 758.92 731.59 756.77 732.04 755.10 731.10
  Q 752.32 729.55 752.22 725.97
  Q 751.93 716.14 752.21 703.96
  A 0.40 0.40 0.0 0 1 752.62 703.57
  L 760.62 703.90
  A 2.38 2.23 -29.2 0 1 761.54 704.13
  Q 763.58 705.15 764.78 706.80
  Q 767.69 710.83 777.62 728.11
  Q 782.72 736.97 792.74 737.40
  Q 799.07 737.67 807.99 737.34
  A 3.21 3.21 0.0 0 0 811.05 734.57
  L 811.08 734.32
  A 2.34 2.33 -89.9 0 0 808.47 731.69
  C 803.27 732.38 799.34 728.72 796.95 724.99
  C 790.95 715.65 785.93 707.02 777.89 701.24"
/>
<path stroke="#84aa9e" vector-effect="non-scaling-stroke" d="
  M 320.18 803.75
  L 316.28 807.65
  A 0.38 0.38 0.0 0 0 316.34 808.23
  Q 323.59 813.14 332.14 812.94
  C 336.44 812.84 339.56 812.85 343.07 810.79
  C 350.15 806.61 349.90 797.47 342.37 793.73
  C 337.80 791.47 331.93 790.40 328.75 789.28
  C 321.77 786.83 326.03 781.08 331.25 780.89
  Q 337.55 780.67 342.98 783.41
  A 0.81 0.81 0.0 0 0 344.00 783.17
  L 346.74 779.41
  A 0.65 0.64 35.7 0 0 346.59 778.50
  C 340.59 774.22 331.69 773.97 325.04 776.17
  Q 316.73 778.92 317.88 787.11
  Q 318.32 790.26 319.80 791.77
  C 323.14 795.19 329.90 796.53 334.40 797.61
  Q 337.48 798.35 338.85 799.61
  C 341.54 802.08 340.44 804.94 337.29 806.12
  C 332.14 808.06 324.85 806.54 320.59 803.71
  A 0.32 0.32 0.0 0 0 320.18 803.75"
/>
<path stroke="#84aa9e" vector-effect="non-scaling-stroke" d="
  M 451.03 803.42
  A 0.24 0.24 0.0 0 0 450.68 803.34
  C 442.60 808.78 428.64 808.59 426.51 796.75
  C 423.97 782.63 438.85 777.75 449.11 783.34
  A 0.97 0.96 36.7 0 0 450.26 783.18
  L 453.53 779.91
  A 0.88 0.87 36.8 0 0 453.33 778.53
  Q 440.88 771.64 428.37 777.37
  C 422.39 780.12 418.27 787.41 418.35 794.04
  Q 418.49 806.77 430.79 811.47
  Q 442.25 815.85 454.03 809.17
  A 0.22 0.22 0.0 0 0 454.11 808.86
  L 451.03 803.42"
/>
<path stroke="#84aa9e" vector-effect="non-scaling-stroke" d="
  M 264.89 776.01
  L 264.89 811.82
  A 0.63 0.63 0.0 0 0 265.52 812.45
  L 271.72 812.45
  A 0.58 0.57 -90.0 0 0 272.29 811.87
  L 272.29 799.73
  A 0.64 0.64 0.0 0 1 272.94 799.09
  C 282.78 799.20 299.23 800.49 297.26 785.16
  C 296.39 778.39 289.50 775.84 283.47 775.61
  Q 280.54 775.50 265.25 775.65
  A 0.36 0.36 0.0 0 0 264.89 776.01"
/>
<path stroke="#84aa9e" vector-effect="non-scaling-stroke" d="
  M 383.67 812.41
  Q 386.50 812.41 386.73 812.39
  A 0.75 0.74 88.1 0 0 387.41 811.66
  L 387.48 797.84
  A 2.81 2.77 -27.1 0 1 388.01 796.24
  L 403.03 775.66
  A 0.08 0.07 20.5 0 0 402.97 775.54
  L 394.85 775.54
  A 0.54 0.54 0.0 0 0 394.40 775.78
  Q 389.25 783.11 383.94 790.43
  Q 383.89 790.51 383.68 790.51
  Q 383.46 790.51 383.40 790.43
  Q 378.10 783.11 372.95 775.77
  A 0.54 0.54 0.0 0 0 372.50 775.53
  L 364.38 775.53
  A 0.08 0.07 81.9 0 0 364.32 775.65
  L 379.33 796.24
  A 2.81 2.77 27.2 0 1 379.86 797.84
  L 379.92 811.66
  A 0.75 0.74 -88.1 0 0 380.60 812.39
  Q 380.83 812.41 383.67 812.41"
/>
<path stroke="#84aa9e" vector-effect="non-scaling-stroke" d="
  M 476.21 793.89
  Q 476.20 810.91 476.24 811.57
  A 0.73 0.73 0.0 0 0 476.96 812.31
  L 483.07 812.39
  A 0.65 0.65 0.0 0 0 483.73 811.74
  L 483.73 797.81
  A 0.75 0.74 87.7 0 1 484.41 797.06
  Q 486.64 796.89 494.11 796.90
  Q 501.57 796.91 503.80 797.08
  A 0.75 0.74 -87.6 0 1 504.48 797.83
  L 504.46 811.76
  A 0.65 0.65 0.0 0 0 505.12 812.41
  L 511.23 812.34
  A 0.73 0.73 0.0 0 0 511.95 811.60
  Q 512.00 810.94 512.01 793.92
  Q 512.02 776.90 511.98 776.24
  A 0.73 0.73 0.0 0 0 511.26 775.50
  L 505.15 775.42
  A 0.65 0.65 0.0 0 0 504.49 776.07
  L 504.49 790.00
  A 0.75 0.74 87.7 0 1 503.81 790.75
  Q 501.57 790.92 494.11 790.91
  Q 486.65 790.91 484.42 790.73
  A 0.75 0.74 -87.6 0 1 483.74 789.99
  L 483.76 776.06
  A 0.65 0.65 0.0 0 0 483.10 775.40
  L 476.99 775.48
  A 0.73 0.73 0.0 0 0 476.27 776.21
  Q 476.22 776.87 476.21 793.89"
/>
<path stroke="#84aa9e" vector-effect="non-scaling-stroke" d="
  M 544.02 776.00
  A 0.51 0.51 0.0 0 0 543.51 775.49
  L 537.09 775.49
  A 0.51 0.51 0.0 0 0 536.58 776.00
  L 536.58 811.86
  A 0.51 0.51 0.0 0 0 537.09 812.37
  L 543.51 812.37
  A 0.51 0.51 0.0 0 0 544.02 811.86
  L 544.02 776.00"
/>
<path stroke="#84aa9e" vector-effect="non-scaling-stroke" d="
  M 585.81 804.14
  Q 593.51 804.15 594.79 804.25
  A 0.92 0.92 0.0 0 1 595.55 804.77
  L 599.02 812.12
  A 0.34 0.34 0.0 0 0 599.33 812.32
  L 606.85 812.32
  A 0.08 0.08 0.0 0 0 606.92 812.21
  L 589.86 776.01
  A 0.72 0.71 79.0 0 0 589.27 775.61
  Q 588.12 775.53 585.84 775.53
  Q 583.56 775.52 582.40 775.60
  A 0.72 0.71 -78.9 0 0 581.82 776.00
  L 564.68 812.16
  A 0.08 0.08 0.0 0 0 564.75 812.27
  L 572.27 812.29
  A 0.34 0.34 0.0 0 0 572.58 812.09
  L 576.06 804.75
  A 0.92 0.92 0.0 0 1 576.82 804.23
  Q 578.10 804.14 585.81 804.14"
/>
<path stroke="#84aa9e" vector-effect="non-scaling-stroke" d="
  M 635.13 812.40
  Q 637.95 812.39 638.31 812.35
  A 0.55 0.54 86.7 0 0 638.79 811.80
  L 638.79 782.20
  A 0.72 0.71 0.0 0 1 639.51 781.49
  L 651.28 781.49
  A 0.56 0.55 -90.0 0 0 651.83 780.93
  L 651.83 776.01
  A 0.49 0.49 0.0 0 0 651.35 775.52
  Q 643.29 775.39 635.02 775.44
  Q 626.75 775.44 618.69 775.62
  A 0.49 0.49 0.0 0 0 618.22 776.11
  L 618.25 781.03
  A 0.56 0.55 89.7 0 0 618.80 781.59
  L 630.57 781.52
  A 0.72 0.71 -0.3 0 1 631.29 782.22
  L 631.47 811.82
  A 0.55 0.54 -87.0 0 0 631.95 812.37
  Q 632.31 812.41 635.13 812.40"
/>
<path stroke="#84aa9e" vector-effect="non-scaling-stroke" d="
  M 706.31 812.19
  L 695.14 798.75
  A 0.38 0.37 61.1 0 1 695.31 798.15
  C 699.84 796.64 703.62 794.39 704.19 789.23
  C 704.67 784.83 704.11 780.45 699.78 778.00
  Q 695.88 775.79 691.95 775.60
  Q 688.41 775.43 672.26 775.50
  A 0.37 0.36 0.0 0 0 671.89 775.86
  L 671.89 811.82
  A 0.57 0.56 0.0 0 0 672.46 812.38
  L 678.89 812.38
  A 0.55 0.55 0.0 0 0 679.44 811.83
  L 679.44 799.35
  A 0.53 0.53 0.0 0 1 679.97 798.82
  L 686.61 798.82
  A 0.80 0.80 0.0 0 1 687.25 799.14
  L 696.95 812.24
  A 0.50 0.46 -17.0 0 0 697.34 812.43
  L 706.19 812.43
  A 0.15 0.15 0.0 0 0 706.31 812.19"
/>
<path stroke="#84aa9e" vector-effect="non-scaling-stroke" d="
  M 740.64 812.32
  Q 743.47 812.33 743.69 812.31
  A 0.75 0.74 88.2 0 0 744.37 811.58
  L 744.47 797.80
  A 2.80 2.76 -27.0 0 1 745.00 796.21
  L 760.00 775.72
  A 0.07 0.07 0.0 0 0 759.95 775.60
  L 751.85 775.58
  A 0.54 0.54 0.0 0 0 751.40 775.82
  Q 746.26 783.12 740.95 790.41
  Q 740.90 790.49 740.69 790.49
  Q 740.47 790.49 740.41 790.41
  Q 735.14 783.10 730.02 775.78
  A 0.54 0.54 0.0 0 0 729.57 775.54
  L 721.48 775.52
  A 0.07 0.07 0.0 0 0 721.42 775.64
  L 736.34 796.19
  A 2.80 2.76 27.3 0 1 736.87 797.79
  L 736.91 811.56
  A 0.75 0.74 -88.0 0 0 737.59 812.30
  Q 737.81 812.32 740.64 812.32"
/>
<path stroke="#858f9b" vector-effect="non-scaling-stroke" d="
  M 296.14 700.88
  L 282.50 655.29
  A 0.24 0.24 0.0 0 0 282.05 655.27
  L 263.15 700.91
  A 0.47 0.47 0.0 0 0 263.58 701.56
  L 295.63 701.56
  A 0.53 0.53 0.0 0 0 296.14 700.88"
/>
<path stroke="#858f9b" vector-effect="non-scaling-stroke" d="
  M 649.28 696.19
  Q 649.46 703.53 651.62 711.53
  C 654.65 722.80 663.37 731.81 675.23 731.51
  C 687.09 731.22 695.34 721.78 697.81 710.38
  Q 699.57 702.28 699.38 694.94
  Q 699.20 687.60 697.05 679.61
  C 694.01 668.34 685.30 659.33 673.44 659.62
  C 661.58 659.92 653.32 669.35 650.85 680.76
  Q 649.10 688.85 649.28 696.19"
/>
<path stroke="#858f9b" vector-effect="non-scaling-stroke" d="
  M 752.10 662.99
  L 752.22 694.87
  A 1.00 1.00 0.0 0 0 753.22 695.86
  L 763.86 695.83
  A 15.48 15.43 -0.2 0 0 779.29 680.34
  L 779.27 677.32
  A 15.48 15.43 -0.2 0 0 763.74 661.95
  L 753.10 661.98
  A 1.00 1.00 0.0 0 0 752.10 662.99"
/>
<path stroke="#84aa9e" vector-effect="non-scaling-stroke" d="
  M 272.32 782.10
  L 272.36 792.50
  A 0.64 0.64 0.0 0 0 273.00 793.14
  L 282.77 793.10
  A 7.17 5.62 -0.2 0 0 289.92 787.46
  L 289.92 787.02
  A 7.17 5.62 -0.2 0 0 282.73 781.42
  L 272.96 781.46
  A 0.64 0.64 0.0 0 0 272.32 782.10"
/>
<path stroke="#84aa9e" vector-effect="non-scaling-stroke" d="
  M 579.10 797.69
  A 0.38 0.38 0.0 0 0 579.44 798.24
  L 592.08 798.30
  A 0.38 0.38 0.0 0 0 592.43 797.76
  L 586.18 784.13
  A 0.38 0.38 0.0 0 0 585.49 784.13
  L 579.10 797.69"
/>
<path stroke="#84aa9e" vector-effect="non-scaling-stroke" d="
  M 679.38 782.35
  L 679.44 792.09
  A 0.77 0.77 0.0 0 0 680.21 792.85
  L 689.91 792.80
  A 7.25 5.45 -0.3 0 0 697.13 787.31
  L 697.13 786.93
  A 7.25 5.45 -0.3 0 0 689.85 781.52
  L 680.15 781.57
  A 0.77 0.77 0.0 0 0 679.38 782.35"
/>
</g>
<path fill="#ffffff" d="
  M 1024.00 0.00
  L 1024.00 1024.00
  L 0.00 1024.00
  L 0.00 0.00
  L 1024.00 0.00
  Z
  M 507.04 233.45
  L 505.08 264.96
  A 0.33 0.29 26.4 0 1 504.54 265.10
  Q 504.40 264.97 498.79 256.40
  C 492.82 247.28 485.81 239.60 476.93 233.52
  A 0.86 0.86 0.0 0 0 475.59 234.14
  Q 474.99 240.56 478.20 246.61
  C 486.62 262.53 500.30 276.05 502.21 294.77
  C 503.02 302.69 502.74 312.60 501.13 321.62
  A 0.32 0.32 0.0 0 1 500.60 321.80
  L 477.47 300.03
  Q 476.41 289.33 475.07 284.17
  C 468.55 259.04 447.79 248.18 423.46 246.39
  A 0.41 0.40 2.7 0 0 423.02 246.78
  Q 422.66 257.56 425.47 268.03
  C 430.74 287.67 445.65 299.91 465.22 304.24
  Q 466.77 304.59 469.47 306.77
  C 477.73 313.04 487.05 321.48 492.10 330.92
  C 495.44 337.16 496.11 342.19 495.58 349.19
  A 0.19 0.18 27.7 0 1 495.25 349.29
  C 488.39 340.76 479.13 333.96 470.07 328.43
  Q 467.94 327.13 438.14 309.86
  Q 424.42 301.91 411.62 288.55
  C 410.04 280.52 408.59 271.21 405.70 264.36
  C 399.13 248.82 386.19 235.56 369.96 230.09
  C 357.46 225.89 346.59 225.13 333.92 226.24
  A 0.42 0.41 87.8 0 0 333.54 226.66
  C 333.76 239.28 338.16 252.25 344.39 262.83
  C 355.39 281.49 374.45 291.22 395.76 292.62
  Q 399.60 292.88 403.54 293.13
  Q 412.51 304.61 423.31 314.17
  C 428.43 318.70 434.21 322.52 439.84 326.42
  A 0.13 0.13 0.0 0 1 439.76 326.66
  L 406.59 323.67
  Q 403.05 320.53 395.57 312.68
  Q 377.97 294.21 351.98 297.12
  Q 335.37 298.97 321.51 307.07
  A 0.63 0.63 0.0 0 0 321.29 307.94
  C 329.30 321.31 342.01 333.32 357.08 337.65
  Q 364.82 339.87 371.25 339.83
  Q 387.44 339.72 403.09 331.96
  Q 418.39 333.71 432.36 337.15
  C 451.20 341.78 468.46 350.21 481.90 364.12
  Q 491.55 374.09 491.99 387.77
  C 492.26 396.01 492.23 406.78 491.77 415.84
  Q 490.20 446.80 489.61 454.74
  C 488.85 464.99 488.61 471.92 486.15 481.71
  Q 479.56 507.92 451.91 510.32
  Q 427.05 512.49 406.69 498.53
  Q 395.57 490.91 390.41 478.96
  A 0.54 0.54 0.0 0 1 391.06 478.23
  C 397.76 480.31 405.73 481.06 412.31 478.57
  C 414.91 477.59 418.11 475.28 416.54 472.19
  Q 416.01 471.14 413.25 470.09
  C 404.24 466.65 396.43 461.91 389.80 454.70
  Q 380.99 445.14 376.08 433.73
  Q 376.00 433.55 372.07 424.75
  A 1.06 1.06 0.0 0 0 370.33 424.46
  Q 361.22 434.02 359.32 447.57
  Q 357.52 460.34 359.67 471.17
  C 364.18 493.85 379.86 514.16 398.82 527.17
  C 409.62 534.58 420.86 539.77 433.22 545.14
  Q 439.79 547.98 450.10 551.91
  C 466.87 558.28 484.07 566.23 498.19 576.32
  Q 503.51 580.12 511.73 587.72
  A 0.60 0.59 45.4 0 0 512.53 587.73
  Q 515.53 585.07 519.52 581.52
  Q 527.02 574.86 536.64 569.40
  Q 552.79 560.22 571.03 553.36
  C 579.08 550.33 588.63 546.42 595.68 543.42
  Q 604.28 539.75 615.15 533.63
  C 633.58 523.26 649.28 508.41 658.45 488.91
  Q 662.75 479.76 664.22 471.09
  C 666.74 456.20 666.08 434.69 652.87 424.24
  A 0.61 0.61 0.0 0 0 651.91 424.52
  Q 647.10 438.38 638.42 450.15
  Q 628.53 463.55 610.38 470.80
  Q 608.48 471.56 608.18 471.86
  C 606.63 473.50 607.54 475.64 609.07 476.98
  C 614.60 481.87 627.18 480.48 633.77 478.40
  A 0.38 0.38 0.0 0 1 634.24 478.91
  C 628.52 492.37 616.92 501.11 603.37 506.21
  Q 590.18 511.17 575.38 510.54
  Q 564.75 510.09 557.51 506.63
  C 546.19 501.22 540.41 492.35 537.58 479.89
  Q 535.76 471.86 535.18 463.88
  C 534.33 452.27 533.66 445.17 533.40 436.70
  C 533.04 425.15 531.85 413.58 531.73 402.73
  Q 531.57 388.13 531.62 386.66
  C 532.03 375.20 538.53 366.96 546.94 359.43
  Q 559.56 348.11 575.18 342.39
  Q 595.26 335.04 620.58 331.89
  Q 625.20 333.55 630.10 335.34
  Q 636.43 337.64 639.77 338.37
  Q 652.16 341.04 664.28 338.27
  C 680.22 334.63 694.41 322.33 702.25 308.00
  A 0.85 0.84 28.8 0 0 701.91 306.85
  C 686.73 298.70 669.16 293.99 652.29 298.31
  Q 643.13 300.66 633.76 308.21
  Q 625.49 314.88 619.39 323.63
  L 583.44 326.64
  A 0.30 0.30 0.0 0 1 583.26 326.09
  Q 590.87 321.51 597.70 315.92
  Q 610.44 305.50 620.78 292.48
  Q 638.31 292.92 652.58 286.85
  Q 669.38 279.70 679.61 261.85
  C 685.26 251.98 689.51 238.88 689.74 226.83
  A 0.64 0.62 3.5 0 0 689.17 226.20
  C 672.84 224.58 654.72 227.49 641.32 236.08
  C 628.50 244.30 618.57 258.72 615.02 274.02
  Q 613.25 281.64 611.22 288.87
  Q 597.97 302.68 585.65 309.91
  Q 557.08 326.66 556.67 326.90
  Q 545.33 333.39 534.86 342.36
  Q 531.10 345.59 528.08 349.27
  A 0.34 0.34 0.0 0 1 527.48 349.10
  C 525.98 337.90 531.54 328.39 538.50 320.27
  Q 539.52 319.08 545.20 313.93
  Q 548.50 310.94 551.67 307.33
  Q 563.64 303.81 574.51 298.22
  Q 581.46 294.65 585.11 291.09
  C 596.68 279.81 601.45 262.82 600.27 246.82
  A 0.30 0.30 0.0 0 0 599.96 246.54
  Q 582.59 247.09 568.08 256.27
  Q 558.16 262.54 553.74 270.75
  Q 547.05 283.17 546.03 299.56
  Q 531.77 311.43 528.23 314.98
  Q 525.38 317.86 522.23 321.31
  A 0.32 0.32 0.0 0 1 521.68 321.14
  Q 519.90 310.35 520.57 296.81
  C 521.37 280.90 531.14 269.56 541.31 255.07
  Q 543.45 252.02 546.50 245.73
  Q 549.21 240.16 548.22 233.67
  A 0.60 0.60 0.0 0 0 547.30 233.25
  C 539.81 238.14 532.35 245.71 527.60 252.39
  Q 524.14 257.26 518.79 265.28
  A 0.33 0.33 0.0 0 1 518.18 265.12
  L 515.74 232.25
  Q 527.81 218.95 533.83 205.80
  Q 542.60 186.63 537.79 164.34
  C 534.24 147.85 523.61 134.45 512.16 122.68
  A 0.79 0.78 -44.2 0 0 511.04 122.67
  C 503.32 130.26 496.30 138.66 491.29 148.85
  Q 474.74 182.44 493.85 214.43
  Q 497.34 220.28 507.04 233.45
  Z
  M 394.97 166.93
  C 393.55 176.18 395.85 186.85 398.94 196.15
  C 405.76 216.61 421.23 230.53 442.38 236.17
  Q 451.34 238.56 462.64 240.15
  A 0.32 0.32 0.0 0 0 463.01 239.88
  Q 464.96 227.13 462.02 214.49
  Q 456.15 189.29 434.54 176.70
  C 422.34 169.60 409.60 167.25 395.74 166.32
  A 0.74 0.72 6.0 0 0 394.97 166.93
  Z
  M 628.35 167.07
  A 0.74 0.72 -5.7 0 0 627.59 166.46
  C 613.72 167.32 600.97 169.60 588.73 176.64
  Q 567.05 189.12 561.04 214.29
  Q 558.04 226.91 559.92 239.68
  A 0.32 0.32 0.0 0 0 560.29 239.95
  Q 571.60 238.42 580.57 236.07
  C 601.76 230.54 617.30 216.70 624.23 196.28
  C 627.37 186.99 629.73 176.33 628.35 167.07
  Z
  M 649.67 380.57
  C 645.71 372.09 639.85 365.07 632.50 359.03
  Q 618.61 347.62 599.79 348.60
  Q 584.12 349.41 571.54 358.14
  A 0.20 0.20 0.0 0 0 571.53 358.46
  C 578.04 364.03 582.85 372.31 590.14 377.97
  C 607.43 391.41 630.07 390.17 649.31 381.53
  A 0.72 0.71 -24.4 0 0 649.67 380.57
  Z
  M 374.27 380.53
  A 0.72 0.72 0.0 0 0 374.63 381.49
  C 393.88 390.24 416.57 391.57 433.96 378.17
  C 441.29 372.53 446.15 364.25 452.70 358.69
  A 0.20 0.20 0.0 0 0 452.69 358.37
  Q 440.11 349.57 424.41 348.69
  Q 405.54 347.63 391.57 359.01
  C 384.18 365.03 378.27 372.05 374.27 380.53
  Z
  M 276.12 645.63
  Q 275.63 646.19 273.91 650.14
  Q 268.58 662.44 255.91 692.89
  Q 248.59 710.47 241.45 724.70
  C 236.77 734.04 231.39 743.06 222.34 747.85
  C 216.52 750.92 208.09 750.41 206.52 743.03
  A 2.87 2.87 0.0 0 1 207.43 740.28
  C 209.49 738.45 211.77 737.11 211.88 734.70
  Q 212.00 732.10 210.10 730.63
  Q 205.87 727.35 200.31 730.14
  C 193.78 733.41 193.84 743.26 197.66 748.56
  C 203.71 756.93 214.96 758.28 224.46 755.48
  C 233.33 752.87 241.46 744.71 246.30 736.30
  Q 253.62 723.58 259.37 709.96
  A 0.90 0.89 -78.5 0 1 260.19 709.41
  L 298.21 709.41
  A 0.51 0.50 81.4 0 1 298.69 709.77
  Q 300.87 717.07 302.75 723.91
  C 304.51 730.36 300.11 732.47 294.73 732.96
  A 1.67 1.67 0.0 0 0 293.28 735.10
  L 293.83 736.91
  A 1.86 1.85 78.1 0 0 295.83 738.22
  Q 300.41 737.65 307.76 736.76
  Q 313.42 736.08 317.71 737.15
  Q 325.22 739.01 333.14 738.19
  A 3.09 3.08 87.0 0 0 335.90 735.12
  L 335.90 734.76
  A 2.74 2.73 87.4 0 0 332.92 732.03
  C 327.13 732.57 324.41 727.86 322.99 723.01
  Q 312.83 688.41 302.64 654.66
  C 301.51 650.89 299.88 646.62 302.55 643.82
  Q 304.95 641.28 310.24 641.46
  A 3.10 3.10 0.0 0 0 313.45 638.23
  L 313.45 638.14
  A 2.93 2.92 85.9 0 0 310.24 635.35
  Q 304.90 635.90 301.25 635.54
  Q 282.56 633.69 279.44 633.38
  Q 265.62 632.02 256.34 633.48
  C 243.68 635.46 230.32 642.82 228.17 656.64
  Q 227.46 661.20 229.02 666.75
  C 231.88 676.91 245.74 680.78 252.06 672.18
  C 253.61 670.07 253.90 667.22 252.01 665.38
  A 1.09 1.07 59.7 0 0 251.01 665.11
  L 247.39 666.02
  A 2.85 2.73 -46.3 0 1 246.27 666.07
  Q 242.32 665.43 240.56 662.14
  C 237.60 656.58 240.04 650.00 244.85 646.19
  C 253.07 639.67 267.18 637.11 276.06 644.76
  A 0.61 0.60 41.4 0 1 276.12 645.63
  Z
  M 513.78 715.69
  Q 513.67 715.75 507.87 721.55
  Q 498.56 730.85 484.30 729.99
  C 472.10 729.25 463.27 719.46 460.39 708.12
  C 456.92 694.43 457.90 676.51 468.67 666.42
  Q 475.99 659.57 485.38 659.33
  C 495.27 659.09 503.61 662.24 507.76 671.77
  Q 509.22 675.14 509.97 677.55
  A 2.23 2.22 83.5 0 0 511.91 679.10
  C 514.85 679.33 516.39 678.69 515.93 675.36
  Q 515.29 670.73 514.59 658.75
  A 2.25 2.24 88.1 0 0 512.34 656.64
  Q 509.56 656.66 507.13 655.87
  C 489.03 649.98 467.45 650.95 452.42 663.32
  Q 445.17 669.29 440.91 679.32
  C 437.30 687.84 437.25 699.50 439.50 708.28
  C 445.30 730.85 466.74 741.44 489.06 738.45
  C 500.58 736.91 513.03 730.36 518.27 719.64
  A 1.65 1.65 0.0 0 0 518.27 718.20
  Q 517.32 716.21 514.88 715.55
  A 1.44 1.43 37.7 0 0 513.78 715.69
  Z
  M 675.52 738.89
  C 691.11 738.41 704.65 731.84 712.84 718.75
  C 721.37 705.10 721.59 685.20 712.60 671.60
  C 703.83 658.34 688.70 651.93 672.86 652.42
  C 657.03 652.91 642.32 660.24 634.38 674.01
  C 626.24 688.13 627.69 707.98 637.04 721.08
  C 646.02 733.64 659.94 739.37 675.52 738.89
  Z
  M 412.86 711.42
  L 365.35 654.29
  A 1.54 1.50 69.8 0 0 364.18 653.73
  Q 355.11 653.64 344.91 653.86
  C 342.09 653.93 339.31 654.80 340.77 658.24
  A 1.34 1.33 -7.0 0 0 341.81 659.04
  C 343.13 659.23 345.66 659.08 347.12 659.84
  Q 350.11 661.42 350.10 664.77
  Q 350.01 695.19 350.08 725.68
  C 350.09 729.88 347.20 731.61 343.53 732.12
  C 341.13 732.46 339.88 734.31 341.68 736.29
  A 2.52 2.52 0.0 0 0 343.55 737.12
  L 366.30 737.12
  A 2.93 2.92 4.8 0 0 369.19 734.68
  L 369.25 734.36
  A 1.88 1.87 -79.5 0 0 367.66 732.03
  L 362.12 731.36
  A 3.67 3.66 87.1 0 1 358.99 728.53
  Q 358.52 726.96 358.56 723.25
  Q 358.89 690.60 358.80 675.30
  A 0.22 0.22 0.0 0 1 359.20 675.16
  C 362.80 679.54 366.69 683.49 370.00 687.58
  Q 387.46 709.14 409.39 735.16
  Q 411.11 737.19 412.55 737.51
  Q 416.10 738.29 420.24 737.93
  A 2.01 1.99 87.4 0 0 422.06 735.92
  Q 421.86 710.09 422.18 671.72
  C 422.24 665.01 421.26 658.90 429.08 659.12
  A 2.04 2.04 0.0 0 0 431.16 656.82
  L 431.11 656.46
  A 2.90 2.90 0.0 0 0 428.27 653.93
  Q 416.46 653.80 404.91 653.84
  A 2.95 2.84 -80.3 0 0 402.19 655.84
  Q 401.72 657.23 403.23 658.77
  A 1.07 1.06 -26.3 0 0 404.15 659.08
  Q 404.61 659.01 407.78 659.29
  Q 413.26 659.76 413.31 665.56
  Q 413.43 678.70 413.31 711.26
  A 0.25 0.25 0.0 0 1 412.86 711.42
  Z
  M 557.35 696.89
  L 594.08 696.89
  A 0.54 0.54 0.0 0 1 594.62 697.41
  Q 594.79 702.89 594.75 718.37
  C 594.74 721.86 595.81 730.49 590.98 731.46
  Q 590.69 731.52 587.00 732.02
  A 2.01 2.01 0.0 0 0 585.27 734.01
  L 585.27 734.55
  A 2.56 2.55 0.3 0 0 587.80 737.10
  Q 604.20 737.26 620.14 737.01
  A 2.69 2.68 4.6 0 0 622.74 734.81
  Q 622.94 733.69 622.12 732.42
  A 1.16 1.15 77.0 0 0 621.31 731.91
  C 620.04 731.76 617.53 732.07 615.93 731.09
  Q 613.36 729.49 613.36 726.06
  Q 613.28 692.40 613.39 663.69
  A 2.56 2.50 56.5 0 1 613.55 662.86
  C 614.80 659.56 617.08 659.08 620.58 659.04
  A 2.15 2.14 -4.6 0 0 622.67 656.59
  L 622.62 656.20
  A 2.76 2.76 0.0 0 0 619.87 653.78
  L 587.97 653.84
  A 2.76 2.75 -85.8 0 0 585.25 656.19
  L 585.23 656.31
  A 2.33 2.33 0.0 0 0 587.27 659.02
  C 590.91 659.42 594.58 659.27 594.72 664.25
  Q 594.87 669.54 594.79 688.89
  A 0.55 0.55 0.0 0 1 594.24 689.44
  L 557.40 689.44
  A 0.45 0.45 0.0 0 1 556.95 688.99
  Q 556.86 675.80 556.93 663.76
  C 556.96 658.78 561.34 659.27 564.76 658.91
  A 1.99 1.99 0.0 0 0 566.55 656.93
  L 566.55 656.29
  A 2.56 2.56 0.0 0 0 563.96 653.73
  Q 549.46 653.87 532.58 653.78
  C 529.66 653.77 526.93 655.77 529.39 658.69
  A 1.12 1.11 68.3 0 0 530.27 659.07
  C 533.77 658.89 537.49 659.58 537.58 663.77
  Q 537.81 673.61 537.65 724.54
  C 537.64 730.29 535.92 731.50 530.44 731.83
  A 1.31 1.28 -70.2 0 0 529.55 732.26
  C 527.67 734.36 529.51 737.22 532.01 737.20
  Q 557.50 737.04 563.86 737.13
  A 2.74 2.73 -84.6 0 0 566.60 734.86
  L 566.64 734.62
  A 2.37 2.36 9.9 0 0 564.72 731.89
  C 563.17 731.62 561.21 732.02 559.32 731.09
  C 556.70 729.80 556.98 726.29 556.98 723.34
  Q 556.98 714.99 556.94 697.30
  A 0.41 0.41 0.0 0 1 557.35 696.89
  Z
  M 777.89 701.24
  A 0.52 0.52 0.0 0 1 778.06 700.31
  C 790.18 696.96 799.01 689.86 798.30 676.81
  C 797.95 670.42 795.81 665.65 790.94 661.76
  Q 783.62 655.91 773.45 654.80
  Q 764.60 653.84 762.24 653.82
  Q 751.61 653.75 727.61 653.85
  A 3.11 3.11 0.0 0 0 724.58 656.33
  L 724.56 656.44
  A 2.11 2.11 0.0 0 0 726.58 658.98
  Q 733.34 659.16 733.37 663.50
  Q 733.55 694.90 733.42 726.24
  Q 733.39 731.60 726.43 732.08
  A 1.94 1.94 0.0 0 0 724.72 734.60
  L 724.79 734.89
  A 3.03 3.02 -7.3 0 0 727.72 737.15
  L 759.17 737.15
  A 3.21 3.20 7.7 0 0 762.26 734.80
  L 762.33 734.55
  A 2.20 2.19 -78.5 0 0 760.54 731.84
  C 758.92 731.59 756.77 732.04 755.10 731.10
  Q 752.32 729.55 752.22 725.97
  Q 751.93 716.14 752.21 703.96
  A 0.40 0.40 0.0 0 1 752.62 703.57
  L 760.62 703.90
  A 2.38 2.23 -29.2 0 1 761.54 704.13
  Q 763.58 705.15 764.78 706.80
  Q 767.69 710.83 777.62 728.11
  Q 782.72 736.97 792.74 737.40
  Q 799.07 737.67 807.99 737.34
  A 3.21 3.21 0.0 0 0 811.05 734.57
  L 811.08 734.32
  A 2.34 2.33 -89.9 0 0 808.47 731.69
  C 803.27 732.38 799.34 728.72 796.95 724.99
  C 790.95 715.65 785.93 707.02 777.89 701.24
  Z
  M 320.18 803.75
  L 316.28 807.65
  A 0.38 0.38 0.0 0 0 316.34 808.23
  Q 323.59 813.14 332.14 812.94
  C 336.44 812.84 339.56 812.85 343.07 810.79
  C 350.15 806.61 349.90 797.47 342.37 793.73
  C 337.80 791.47 331.93 790.40 328.75 789.28
  C 321.77 786.83 326.03 781.08 331.25 780.89
  Q 337.55 780.67 342.98 783.41
  A 0.81 0.81 0.0 0 0 344.00 783.17
  L 346.74 779.41
  A 0.65 0.64 35.7 0 0 346.59 778.50
  C 340.59 774.22 331.69 773.97 325.04 776.17
  Q 316.73 778.92 317.88 787.11
  Q 318.32 790.26 319.80 791.77
  C 323.14 795.19 329.90 796.53 334.40 797.61
  Q 337.48 798.35 338.85 799.61
  C 341.54 802.08 340.44 804.94 337.29 806.12
  C 332.14 808.06 324.85 806.54 320.59 803.71
  A 0.32 0.32 0.0 0 0 320.18 803.75
  Z
  M 451.03 803.42
  A 0.24 0.24 0.0 0 0 450.68 803.34
  C 442.60 808.78 428.64 808.59 426.51 796.75
  C 423.97 782.63 438.85 777.75 449.11 783.34
  A 0.97 0.96 36.7 0 0 450.26 783.18
  L 453.53 779.91
  A 0.88 0.87 36.8 0 0 453.33 778.53
  Q 440.88 771.64 428.37 777.37
  C 422.39 780.12 418.27 787.41 418.35 794.04
  Q 418.49 806.77 430.79 811.47
  Q 442.25 815.85 454.03 809.17
  A 0.22 0.22 0.0 0 0 454.11 808.86
  L 451.03 803.42
  Z
  M 264.89 776.01
  L 264.89 811.82
  A 0.63 0.63 0.0 0 0 265.52 812.45
  L 271.72 812.45
  A 0.58 0.57 -90.0 0 0 272.29 811.87
  L 272.29 799.73
  A 0.64 0.64 0.0 0 1 272.94 799.09
  C 282.78 799.20 299.23 800.49 297.26 785.16
  C 296.39 778.39 289.50 775.84 283.47 775.61
  Q 280.54 775.50 265.25 775.65
  A 0.36 0.36 0.0 0 0 264.89 776.01
  Z
  M 383.67 812.41
  Q 386.50 812.41 386.73 812.39
  A 0.75 0.74 88.1 0 0 387.41 811.66
  L 387.48 797.84
  A 2.81 2.77 -27.1 0 1 388.01 796.24
  L 403.03 775.66
  A 0.08 0.07 20.5 0 0 402.97 775.54
  L 394.85 775.54
  A 0.54 0.54 0.0 0 0 394.40 775.78
  Q 389.25 783.11 383.94 790.43
  Q 383.89 790.51 383.68 790.51
  Q 383.46 790.51 383.40 790.43
  Q 378.10 783.11 372.95 775.77
  A 0.54 0.54 0.0 0 0 372.50 775.53
  L 364.38 775.53
  A 0.08 0.07 81.9 0 0 364.32 775.65
  L 379.33 796.24
  A 2.81 2.77 27.2 0 1 379.86 797.84
  L 379.92 811.66
  A 0.75 0.74 -88.1 0 0 380.60 812.39
  Q 380.83 812.41 383.67 812.41
  Z
  M 476.21 793.89
  Q 476.20 810.91 476.24 811.57
  A 0.73 0.73 0.0 0 0 476.96 812.31
  L 483.07 812.39
  A 0.65 0.65 0.0 0 0 483.73 811.74
  L 483.73 797.81
  A 0.75 0.74 87.7 0 1 484.41 797.06
  Q 486.64 796.89 494.11 796.90
  Q 501.57 796.91 503.80 797.08
  A 0.75 0.74 -87.6 0 1 504.48 797.83
  L 504.46 811.76
  A 0.65 0.65 0.0 0 0 505.12 812.41
  L 511.23 812.34
  A 0.73 0.73 0.0 0 0 511.95 811.60
  Q 512.00 810.94 512.01 793.92
  Q 512.02 776.90 511.98 776.24
  A 0.73 0.73 0.0 0 0 511.26 775.50
  L 505.15 775.42
  A 0.65 0.65 0.0 0 0 504.49 776.07
  L 504.49 790.00
  A 0.75 0.74 87.7 0 1 503.81 790.75
  Q 501.57 790.92 494.11 790.91
  Q 486.65 790.91 484.42 790.73
  A 0.75 0.74 -87.6 0 1 483.74 789.99
  L 483.76 776.06
  A 0.65 0.65 0.0 0 0 483.10 775.40
  L 476.99 775.48
  A 0.73 0.73 0.0 0 0 476.27 776.21
  Q 476.22 776.87 476.21 793.89
  Z
  M 544.02 776.00
  A 0.51 0.51 0.0 0 0 543.51 775.49
  L 537.09 775.49
  A 0.51 0.51 0.0 0 0 536.58 776.00
  L 536.58 811.86
  A 0.51 0.51 0.0 0 0 537.09 812.37
  L 543.51 812.37
  A 0.51 0.51 0.0 0 0 544.02 811.86
  L 544.02 776.00
  Z
  M 585.81 804.14
  Q 593.51 804.15 594.79 804.25
  A 0.92 0.92 0.0 0 1 595.55 804.77
  L 599.02 812.12
  A 0.34 0.34 0.0 0 0 599.33 812.32
  L 606.85 812.32
  A 0.08 0.08 0.0 0 0 606.92 812.21
  L 589.86 776.01
  A 0.72 0.71 79.0 0 0 589.27 775.61
  Q 588.12 775.53 585.84 775.53
  Q 583.56 775.52 582.40 775.60
  A 0.72 0.71 -78.9 0 0 581.82 776.00
  L 564.68 812.16
  A 0.08 0.08 0.0 0 0 564.75 812.27
  L 572.27 812.29
  A 0.34 0.34 0.0 0 0 572.58 812.09
  L 576.06 804.75
  A 0.92 0.92 0.0 0 1 576.82 804.23
  Q 578.10 804.14 585.81 804.14
  Z
  M 635.13 812.40
  Q 637.95 812.39 638.31 812.35
  A 0.55 0.54 86.7 0 0 638.79 811.80
  L 638.79 782.20
  A 0.72 0.71 0.0 0 1 639.51 781.49
  L 651.28 781.49
  A 0.56 0.55 -90.0 0 0 651.83 780.93
  L 651.83 776.01
  A 0.49 0.49 0.0 0 0 651.35 775.52
  Q 643.29 775.39 635.02 775.44
  Q 626.75 775.44 618.69 775.62
  A 0.49 0.49 0.0 0 0 618.22 776.11
  L 618.25 781.03
  A 0.56 0.55 89.7 0 0 618.80 781.59
  L 630.57 781.52
  A 0.72 0.71 -0.3 0 1 631.29 782.22
  L 631.47 811.82
  A 0.55 0.54 -87.0 0 0 631.95 812.37
  Q 632.31 812.41 635.13 812.40
  Z
  M 706.31 812.19
  L 695.14 798.75
  A 0.38 0.37 61.1 0 1 695.31 798.15
  C 699.84 796.64 703.62 794.39 704.19 789.23
  C 704.67 784.83 704.11 780.45 699.78 778.00
  Q 695.88 775.79 691.95 775.60
  Q 688.41 775.43 672.26 775.50
  A 0.37 0.36 0.0 0 0 671.89 775.86
  L 671.89 811.82
  A 0.57 0.56 0.0 0 0 672.46 812.38
  L 678.89 812.38
  A 0.55 0.55 0.0 0 0 679.44 811.83
  L 679.44 799.35
  A 0.53 0.53 0.0 0 1 679.97 798.82
  L 686.61 798.82
  A 0.80 0.80 0.0 0 1 687.25 799.14
  L 696.95 812.24
  A 0.50 0.46 -17.0 0 0 697.34 812.43
  L 706.19 812.43
  A 0.15 0.15 0.0 0 0 706.31 812.19
  Z
  M 740.64 812.32
  Q 743.47 812.33 743.69 812.31
  A 0.75 0.74 88.2 0 0 744.37 811.58
  L 744.47 797.80
  A 2.80 2.76 -27.0 0 1 745.00 796.21
  L 760.00 775.72
  A 0.07 0.07 0.0 0 0 759.95 775.60
  L 751.85 775.58
  A 0.54 0.54 0.0 0 0 751.40 775.82
  Q 746.26 783.12 740.95 790.41
  Q 740.90 790.49 740.69 790.49
  Q 740.47 790.49 740.41 790.41
  Q 735.14 783.10 730.02 775.78
  A 0.54 0.54 0.0 0 0 729.57 775.54
  L 721.48 775.52
  A 0.07 0.07 0.0 0 0 721.42 775.64
  L 736.34 796.19
  A 2.80 2.76 27.3 0 1 736.87 797.79
  L 736.91 811.56
  A 0.75 0.74 -88.0 0 0 737.59 812.30
  Q 737.81 812.32 740.64 812.32
  Z"
/>
<path fill="#013f2c" d="
  M 515.74 232.25
  Q 511.61 235.24 507.04 233.45
  Q 497.34 220.28 493.85 214.43
  Q 474.74 182.44 491.29 148.85
  C 496.30 138.66 503.32 130.26 511.04 122.67
  A 0.79 0.78 -44.2 0 1 512.16 122.68
  C 523.61 134.45 534.24 147.85 537.79 164.34
  Q 542.60 186.63 533.83 205.80
  Q 527.81 218.95 515.74 232.25
  Z"
/>
<path fill="#013f2c" d="
  M 395.74 166.32
  C 409.60 167.25 422.34 169.60 434.54 176.70
  Q 456.15 189.29 462.02 214.49
  Q 464.96 227.13 463.01 239.88
  A 0.32 0.32 0.0 0 1 462.64 240.15
  Q 451.34 238.56 442.38 236.17
  C 421.23 230.53 405.76 216.61 398.94 196.15
  C 395.85 186.85 393.55 176.18 394.97 166.93
  A 0.74 0.72 6.0 0 1 395.74 166.32
  Z"
/>
<path fill="#013f2c" d="
  M 628.35 167.07
  C 629.73 176.33 627.37 186.99 624.23 196.28
  C 617.30 216.70 601.76 230.54 580.57 236.07
  Q 571.60 238.42 560.29 239.95
  A 0.32 0.32 0.0 0 1 559.92 239.68
  Q 558.04 226.91 561.04 214.29
  Q 567.05 189.12 588.73 176.64
  C 600.97 169.60 613.72 167.32 627.59 166.46
  A 0.74 0.72 -5.7 0 1 628.35 167.07
  Z"
/>
<path fill="#013f2c" d="
  M 411.62 288.55
  Q 408.59 291.99 403.54 293.13
  Q 399.60 292.88 395.76 292.62
  C 374.45 291.22 355.39 281.49 344.39 262.83
  C 338.16 252.25 333.76 239.28 333.54 226.66
  A 0.42 0.41 87.8 0 1 333.92 226.24
  C 346.59 225.13 357.46 225.89 369.96 230.09
  C 386.19 235.56 399.13 248.82 405.70 264.36
  C 408.59 271.21 410.04 280.52 411.62 288.55
  Z"
/>
<path fill="#013f2c" d="
  M 620.78 292.48
  Q 614.79 292.09 611.22 288.87
  Q 613.25 281.64 615.02 274.02
  C 618.57 258.72 628.50 244.30 641.32 236.08
  C 654.72 227.49 672.84 224.58 689.17 226.20
  A 0.64 0.62 3.5 0 1 689.74 226.83
  C 689.51 238.88 685.26 251.98 679.61 261.85
  Q 669.38 279.70 652.58 286.85
  Q 638.31 292.92 620.78 292.48
  Z"
/>
<path fill="#0a1e37" d="
  M 515.74 232.25
  L 518.18 265.12
  A 0.33 0.33 0.0 0 0 518.79 265.28
  Q 524.14 257.26 527.60 252.39
  C 532.35 245.71 539.81 238.14 547.30 233.25
  A 0.60 0.60 0.0 0 1 548.22 233.67
  Q 549.21 240.16 546.50 245.73
  Q 543.45 252.02 541.31 255.07
  C 531.14 269.56 521.37 280.90 520.57 296.81
  Q 519.90 310.35 521.68 321.14
  A 0.32 0.32 0.0 0 0 522.23 321.31
  Q 525.38 317.86 528.23 314.98
  Q 531.77 311.43 546.03 299.56
  Q 545.59 306.35 551.67 307.33
  Q 548.50 310.94 545.20 313.93
  Q 539.52 319.08 538.50 320.27
  C 531.54 328.39 525.98 337.90 527.48 349.10
  A 0.34 0.34 0.0 0 0 528.08 349.27
  Q 531.10 345.59 534.86 342.36
  Q 545.33 333.39 556.67 326.90
  Q 557.08 326.66 585.65 309.91
  Q 597.97 302.68 611.22 288.87
  Q 614.79 292.09 620.78 292.48
  Q 610.44 305.50 597.70 315.92
  Q 590.87 321.51 583.26 326.09
  A 0.30 0.30 0.0 0 0 583.44 326.64
  L 619.39 323.63
  Q 618.13 327.21 620.58 331.89
  Q 595.26 335.04 575.18 342.39
  Q 559.56 348.11 546.94 359.43
  C 538.53 366.96 532.03 375.20 531.62 386.66
  Q 531.57 388.13 531.73 402.73
  C 531.85 413.58 533.04 425.15 533.40 436.70
  C 533.66 445.17 534.33 452.27 535.18 463.88
  Q 535.76 471.86 537.58 479.89
  C 540.41 492.35 546.19 501.22 557.51 506.63
  Q 564.75 510.09 575.38 510.54
  Q 590.18 511.17 603.37 506.21
  C 616.92 501.11 628.52 492.37 634.24 478.91
  A 0.38 0.38 0.0 0 0 633.77 478.40
  C 627.18 480.48 614.60 481.87 609.07 476.98
  C 607.54 475.64 606.63 473.50 608.18 471.86
  Q 608.48 471.56 610.38 470.80
  Q 628.53 463.55 638.42 450.15
  Q 647.10 438.38 651.91 424.52
  A 0.61 0.61 0.0 0 1 652.87 424.24
  C 666.08 434.69 666.74 456.20 664.22 471.09
  Q 662.75 479.76 658.45 488.91
  C 649.28 508.41 633.58 523.26 615.15 533.63
  Q 604.28 539.75 595.68 543.42
  C 588.63 546.42 579.08 550.33 571.03 553.36
  Q 552.79 560.22 536.64 569.40
  Q 527.02 574.86 519.52 581.52
  Q 515.53 585.07 512.53 587.73
  A 0.60 0.59 45.4 0 1 511.73 587.72
  Q 503.51 580.12 498.19 576.32
  C 484.07 566.23 466.87 558.28 450.10 551.91
  Q 439.79 547.98 433.22 545.14
  C 420.86 539.77 409.62 534.58 398.82 527.17
  C 379.86 514.16 364.18 493.85 359.67 471.17
  Q 357.52 460.34 359.32 447.57
  Q 361.22 434.02 370.33 424.46
  A 1.06 1.06 0.0 0 1 372.07 424.75
  Q 376.00 433.55 376.08 433.73
  Q 380.99 445.14 389.80 454.70
  C 396.43 461.91 404.24 466.65 413.25 470.09
  Q 416.01 471.14 416.54 472.19
  C 418.11 475.28 414.91 477.59 412.31 478.57
  C 405.73 481.06 397.76 480.31 391.06 478.23
  A 0.54 0.54 0.0 0 0 390.41 478.96
  Q 395.57 490.91 406.69 498.53
  Q 427.05 512.49 451.91 510.32
  Q 479.56 507.92 486.15 481.71
  C 488.61 471.92 488.85 464.99 489.61 454.74
  Q 490.20 446.80 491.77 415.84
  C 492.23 406.78 492.26 396.01 491.99 387.77
  Q 491.55 374.09 481.90 364.12
  C 468.46 350.21 451.20 341.78 432.36 337.15
  Q 418.39 333.71 403.09 331.96
  Q 408.49 328.47 406.59 323.67
  L 439.76 326.66
  A 0.13 0.13 0.0 0 0 439.84 326.42
  C 434.21 322.52 428.43 318.70 423.31 314.17
  Q 412.51 304.61 403.54 293.13
  Q 408.59 291.99 411.62 288.55
  Q 424.42 301.91 438.14 309.86
  Q 467.94 327.13 470.07 328.43
  C 479.13 333.96 488.39 340.76 495.25 349.29
  A 0.19 0.18 27.7 0 0 495.58 349.19
  C 496.11 342.19 495.44 337.16 492.10 330.92
  C 487.05 321.48 477.73 313.04 469.47 306.77
  Q 475.52 305.58 477.47 300.03
  L 500.60 321.80
  A 0.32 0.32 0.0 0 0 501.13 321.62
  C 502.74 312.60 503.02 302.69 502.21 294.77
  C 500.30 276.05 486.62 262.53 478.20 246.61
  Q 474.99 240.56 475.59 234.14
  A 0.86 0.86 0.0 0 1 476.93 233.52
  C 485.81 239.60 492.82 247.28 498.79 256.40
  Q 504.40 264.97 504.54 265.10
  A 0.33 0.29 26.4 0 0 505.08 264.96
  L 507.04 233.45
  Q 511.61 235.24 515.74 232.25
  Z"
/>
<path fill="#013f2c" d="
  M 477.47 300.03
  Q 475.52 305.58 469.47 306.77
  Q 466.77 304.59 465.22 304.24
  C 445.65 299.91 430.74 287.67 425.47 268.03
  Q 422.66 257.56 423.02 246.78
  A 0.41 0.40 2.7 0 1 423.46 246.39
  C 447.79 248.18 468.55 259.04 475.07 284.17
  Q 476.41 289.33 477.47 300.03
  Z"
/>
<path fill="#013f2c" d="
  M 551.67 307.33
  Q 545.59 306.35 546.03 299.56
  Q 547.05 283.17 553.74 270.75
  Q 558.16 262.54 568.08 256.27
  Q 582.59 247.09 599.96 246.54
  A 0.30 0.30 0.0 0 1 600.27 246.82
  C 601.45 262.82 596.68 279.81 585.11 291.09
  Q 581.46 294.65 574.51 298.22
  Q 563.64 303.81 551.67 307.33
  Z"
/>
<path fill="#013f2c" d="
  M 620.58 331.89
  Q 618.13 327.21 619.39 323.63
  Q 625.49 314.88 633.76 308.21
  Q 643.13 300.66 652.29 298.31
  C 669.16 293.99 686.73 298.70 701.91 306.85
  A 0.85 0.84 28.8 0 1 702.25 308.00
  C 694.41 322.33 680.22 334.63 664.28 338.27
  Q 652.16 341.04 639.77 338.37
  Q 636.43 337.64 630.10 335.34
  Q 625.20 333.55 620.58 331.89
  Z"
/>
<path fill="#013f2c" d="
  M 406.59 323.67
  Q 408.49 328.47 403.09 331.96
  Q 387.44 339.72 371.25 339.83
  Q 364.82 339.87 357.08 337.65
  C 342.01 333.32 329.30 321.31 321.29 307.94
  A 0.63 0.63 0.0 0 1 321.51 307.07
  Q 335.37 298.97 351.98 297.12
  Q 377.97 294.21 395.57 312.68
  Q 403.05 320.53 406.59 323.67
  Z"
/>
<path fill="#013f2c" d="
  M 649.67 380.57
  A 0.72 0.71 -24.4 0 1 649.31 381.53
  C 630.07 390.17 607.43 391.41 590.14 377.97
  C 582.85 372.31 578.04 364.03 571.53 358.46
  A 0.20 0.20 0.0 0 1 571.54 358.14
  Q 584.12 349.41 599.79 348.60
  Q 618.61 347.62 632.50 359.03
  C 639.85 365.07 645.71 372.09 649.67 380.57
  Z"
/>
<path fill="#013f2c" d="
  M 374.27 380.53
  C 378.27 372.05 384.18 365.03 391.57 359.01
  Q 405.54 347.63 424.41 348.69
  Q 440.11 349.57 452.69 358.37
  A 0.20 0.20 0.0 0 1 452.70 358.69
  C 446.15 364.25 441.29 372.53 433.96 378.17
  C 416.57 391.57 393.88 390.24 374.63 381.49
  A 0.72 0.72 0.0 0 1 374.27 380.53
  Z"
/>
<path fill="#0a1e37" d="
  M 276.06 644.76
  C 267.18 637.11 253.07 639.67 244.85 646.19
  C 240.04 650.00 237.60 656.58 240.56 662.14
  Q 242.32 665.43 246.27 666.07
  A 2.85 2.73 -46.3 0 0 247.39 666.02
  L 251.01 665.11
  A 1.09 1.07 59.7 0 1 252.01 665.38
  C 253.90 667.22 253.61 670.07 252.06 672.18
  C 245.74 680.78 231.88 676.91 229.02 666.75
  Q 227.46 661.20 228.17 656.64
  C 230.32 642.82 243.68 635.46 256.34 633.48
  Q 265.62 632.02 279.44 633.38
  Q 282.56 633.69 301.25 635.54
  Q 304.90 635.90 310.24 635.35
  A 2.93 2.92 85.9 0 1 313.45 638.14
  L 313.45 638.23
  A 3.10 3.10 0.0 0 1 310.24 641.46
  Q 304.95 641.28 302.55 643.82
  C 299.88 646.62 301.51 650.89 302.64 654.66
  Q 312.83 688.41 322.99 723.01
  C 324.41 727.86 327.13 732.57 332.92 732.03
  A 2.74 2.73 87.4 0 1 335.90 734.76
  L 335.90 735.12
  A 3.09 3.08 87.0 0 1 333.14 738.19
  Q 325.22 739.01 317.71 737.15
  Q 313.42 736.08 307.76 736.76
  Q 300.41 737.65 295.83 738.22
  A 1.86 1.85 78.1 0 1 293.83 736.91
  L 293.28 735.10
  A 1.67 1.67 0.0 0 1 294.73 732.96
  C 300.11 732.47 304.51 730.36 302.75 723.91
  Q 300.87 717.07 298.69 709.77
  A 0.51 0.50 81.4 0 0 298.21 709.41
  L 260.19 709.41
  A 0.90 0.89 -78.5 0 0 259.37 709.96
  Q 253.62 723.58 246.30 736.30
  C 241.46 744.71 233.33 752.87 224.46 755.48
  C 214.96 758.28 203.71 756.93 197.66 748.56
  C 193.84 743.26 193.78 733.41 200.31 730.14
  Q 205.87 727.35 210.10 730.63
  Q 212.00 732.10 211.88 734.70
  C 211.77 737.11 209.49 738.45 207.43 740.28
  A 2.87 2.87 0.0 0 0 206.52 743.03
  C 208.09 750.41 216.52 750.92 222.34 747.85
  C 231.39 743.06 236.77 734.04 241.45 724.70
  Q 248.59 710.47 255.91 692.89
  Q 268.58 662.44 273.91 650.14
  Q 275.63 646.19 276.12 645.63
  A 0.61 0.60 41.4 0 0 276.06 644.76
  Z
  M 296.14 700.88
  L 282.50 655.29
  A 0.24 0.24 0.0 0 0 282.05 655.27
  L 263.15 700.91
  A 0.47 0.47 0.0 0 0 263.58 701.56
  L 295.63 701.56
  A 0.53 0.53 0.0 0 0 296.14 700.88
  Z"
/>
<path fill="#0a1e37" d="
  M 514.88 715.55
  Q 517.32 716.21 518.27 718.20
  A 1.65 1.65 0.0 0 1 518.27 719.64
  C 513.03 730.36 500.58 736.91 489.06 738.45
  C 466.74 741.44 445.30 730.85 439.50 708.28
  C 437.25 699.50 437.30 687.84 440.91 679.32
  Q 445.17 669.29 452.42 663.32
  C 467.45 650.95 489.03 649.98 507.13 655.87
  Q 509.56 656.66 512.34 656.64
  A 2.25 2.24 88.1 0 1 514.59 658.75
  Q 515.29 670.73 515.93 675.36
  C 516.39 678.69 514.85 679.33 511.91 679.10
  A 2.23 2.22 83.5 0 1 509.97 677.55
  Q 509.22 675.14 507.76 671.77
  C 503.61 662.24 495.27 659.09 485.38 659.33
  Q 475.99 659.57 468.67 666.42
  C 457.90 676.51 456.92 694.43 460.39 708.12
  C 463.27 719.46 472.10 729.25 484.30 729.99
  Q 498.56 730.85 507.87 721.55
  Q 513.67 715.75 513.78 715.69
  A 1.44 1.43 37.7 0 1 514.88 715.55
  Z"
/>
<path fill="#0a1e37" d="
  M 672.86 652.42
  C 688.70 651.93 703.83 658.34 712.60 671.60
  C 721.59 685.20 721.37 705.10 712.84 718.75
  C 704.65 731.84 691.11 738.41 675.52 738.89
  C 659.94 739.37 646.02 733.64 637.04 721.08
  C 627.69 707.98 626.24 688.13 634.38 674.01
  C 642.32 660.24 657.03 652.91 672.86 652.42
  Z
  M 649.28 696.19
  Q 649.46 703.53 651.62 711.53
  C 654.65 722.80 663.37 731.81 675.23 731.51
  C 687.09 731.22 695.34 721.78 697.81 710.38
  Q 699.57 702.28 699.38 694.94
  Q 699.20 687.60 697.05 679.61
  C 694.01 668.34 685.30 659.33 673.44 659.62
  C 661.58 659.92 653.32 669.35 650.85 680.76
  Q 649.10 688.85 649.28 696.19
  Z"
/>
<path fill="#0a1e37" d="
  M 412.86 711.42
  A 0.25 0.25 0.0 0 0 413.31 711.26
  Q 413.43 678.70 413.31 665.56
  Q 413.26 659.76 407.78 659.29
  Q 404.61 659.01 404.15 659.08
  A 1.07 1.06 -26.3 0 1 403.23 658.77
  Q 401.72 657.23 402.19 655.84
  A 2.95 2.84 -80.3 0 1 404.91 653.84
  Q 416.46 653.80 428.27 653.93
  A 2.90 2.90 0.0 0 1 431.11 656.46
  L 431.16 656.82
  A 2.04 2.04 0.0 0 1 429.08 659.12
  C 421.26 658.90 422.24 665.01 422.18 671.72
  Q 421.86 710.09 422.06 735.92
  A 2.01 1.99 87.4 0 1 420.24 737.93
  Q 416.10 738.29 412.55 737.51
  Q 411.11 737.19 409.39 735.16
  Q 387.46 709.14 370.00 687.58
  C 366.69 683.49 362.80 679.54 359.20 675.16
  A 0.22 0.22 0.0 0 0 358.80 675.30
  Q 358.89 690.60 358.56 723.25
  Q 358.52 726.96 358.99 728.53
  A 3.67 3.66 87.1 0 0 362.12 731.36
  L 367.66 732.03
  A 1.88 1.87 -79.5 0 1 369.25 734.36
  L 369.19 734.68
  A 2.93 2.92 4.8 0 1 366.30 737.12
  L 343.55 737.12
  A 2.52 2.52 0.0 0 1 341.68 736.29
  C 339.88 734.31 341.13 732.46 343.53 732.12
  C 347.20 731.61 350.09 729.88 350.08 725.68
  Q 350.01 695.19 350.10 664.77
  Q 350.11 661.42 347.12 659.84
  C 345.66 659.08 343.13 659.23 341.81 659.04
  A 1.34 1.33 -7.0 0 1 340.77 658.24
  C 339.31 654.80 342.09 653.93 344.91 653.86
  Q 355.11 653.64 364.18 653.73
  A 1.54 1.50 69.8 0 1 365.35 654.29
  L 412.86 711.42
  Z"
/>
<path fill="#0a1e37" d="
  M 557.35 696.89
  A 0.41 0.41 0.0 0 0 556.94 697.30
  Q 556.98 714.99 556.98 723.34
  C 556.98 726.29 556.70 729.80 559.32 731.09
  C 561.21 732.02 563.17 731.62 564.72 731.89
  A 2.37 2.36 9.9 0 1 566.64 734.62
  L 566.60 734.86
  A 2.74 2.73 -84.6 0 1 563.86 737.13
  Q 557.50 737.04 532.01 737.20
  C 529.51 737.22 527.67 734.36 529.55 732.26
  A 1.31 1.28 -70.2 0 1 530.44 731.83
  C 535.92 731.50 537.64 730.29 537.65 724.54
  Q 537.81 673.61 537.58 663.77
  C 537.49 659.58 533.77 658.89 530.27 659.07
  A 1.12 1.11 68.3 0 1 529.39 658.69
  C 526.93 655.77 529.66 653.77 532.58 653.78
  Q 549.46 653.87 563.96 653.73
  A 2.56 2.56 0.0 0 1 566.55 656.29
  L 566.55 656.93
  A 1.99 1.99 0.0 0 1 564.76 658.91
  C 561.34 659.27 556.96 658.78 556.93 663.76
  Q 556.86 675.80 556.95 688.99
  A 0.45 0.45 0.0 0 0 557.40 689.44
  L 594.24 689.44
  A 0.55 0.55 0.0 0 0 594.79 688.89
  Q 594.87 669.54 594.72 664.25
  C 594.58 659.27 590.91 659.42 587.27 659.02
  A 2.33 2.33 0.0 0 1 585.23 656.31
  L 585.25 656.19
  A 2.76 2.75 -85.8 0 1 587.97 653.84
  L 619.87 653.78
  A 2.76 2.76 0.0 0 1 622.62 656.20
  L 622.67 656.59
  A 2.15 2.14 -4.6 0 1 620.58 659.04
  C 617.08 659.08 614.80 659.56 613.55 662.86
  A 2.56 2.50 56.5 0 0 613.39 663.69
  Q 613.28 692.40 613.36 726.06
  Q 613.36 729.49 615.93 731.09
  C 617.53 732.07 620.04 731.76 621.31 731.91
  A 1.16 1.15 77.0 0 1 622.12 732.42
  Q 622.94 733.69 622.74 734.81
  A 2.69 2.68 4.6 0 1 620.14 737.01
  Q 604.20 737.26 587.80 737.10
  A 2.56 2.55 0.3 0 1 585.27 734.55
  L 585.27 734.01
  A 2.01 2.01 0.0 0 1 587.00 732.02
  Q 590.69 731.52 590.98 731.46
  C 595.81 730.49 594.74 721.86 594.75 718.37
  Q 594.79 702.89 594.62 697.41
  A 0.54 0.54 0.0 0 0 594.08 696.89
  L 557.35 696.89
  Z"
/>
<path fill="#0a1e37" d="
  M 777.89 701.24
  C 785.93 707.02 790.95 715.65 796.95 724.99
  C 799.34 728.72 803.27 732.38 808.47 731.69
  A 2.34 2.33 -89.9 0 1 811.08 734.32
  L 811.05 734.57
  A 3.21 3.21 0.0 0 1 807.99 737.34
  Q 799.07 737.67 792.74 737.40
  Q 782.72 736.97 777.62 728.11
  Q 767.69 710.83 764.78 706.80
  Q 763.58 705.15 761.54 704.13
  A 2.38 2.23 -29.2 0 0 760.62 703.90
  L 752.62 703.57
  A 0.40 0.40 0.0 0 0 752.21 703.96
  Q 751.93 716.14 752.22 725.97
  Q 752.32 729.55 755.10 731.10
  C 756.77 732.04 758.92 731.59 760.54 731.84
  A 2.20 2.19 -78.5 0 1 762.33 734.55
  L 762.26 734.80
  A 3.21 3.20 7.7 0 1 759.17 737.15
  L 727.72 737.15
  A 3.03 3.02 -7.3 0 1 724.79 734.89
  L 724.72 734.60
  A 1.94 1.94 0.0 0 1 726.43 732.08
  Q 733.39 731.60 733.42 726.24
  Q 733.55 694.90 733.37 663.50
  Q 733.34 659.16 726.58 658.98
  A 2.11 2.11 0.0 0 1 724.56 656.44
  L 724.58 656.33
  A 3.11 3.11 0.0 0 1 727.61 653.85
  Q 751.61 653.75 762.24 653.82
  Q 764.60 653.84 773.45 654.80
  Q 783.62 655.91 790.94 661.76
  C 795.81 665.65 797.95 670.42 798.30 676.81
  C 799.01 689.86 790.18 696.96 778.06 700.31
  A 0.52 0.52 0.0 0 0 777.89 701.24
  Z
  M 752.10 662.99
  L 752.22 694.87
  A 1.00 1.00 0.0 0 0 753.22 695.86
  L 763.86 695.83
  A 15.48 15.43 -0.2 0 0 779.29 680.34
  L 779.27 677.32
  A 15.48 15.43 -0.2 0 0 763.74 661.95
  L 753.10 661.98
  A 1.00 1.00 0.0 0 0 752.10 662.99
  Z"
/>
<path fill="#ffffff" d="
  M 296.14 700.88
  A 0.53 0.53 0.0 0 1 295.63 701.56
  L 263.58 701.56
  A 0.47 0.47 0.0 0 1 263.15 700.91
  L 282.05 655.27
  A 0.24 0.24 0.0 0 1 282.50 655.29
  L 296.14 700.88
  Z"
/>
<path fill="#ffffff" d="
  M 673.44 659.62
  C 685.30 659.33 694.01 668.34 697.05 679.61
  Q 699.20 687.60 699.38 694.94
  Q 699.57 702.28 697.81 710.38
  C 695.34 721.78 687.09 731.22 675.23 731.51
  C 663.37 731.81 654.65 722.80 651.62 711.53
  Q 649.46 703.53 649.28 696.19
  Q 649.10 688.85 650.85 680.76
  C 653.32 669.35 661.58 659.92 673.44 659.62
  Z"
/>
<path fill="#ffffff" d="
  M 752.10 662.99
  A 1.00 1.00 0.0 0 1 753.10 661.98
  L 763.74 661.95
  A 15.48 15.43 -0.2 0 1 779.27 677.32
  L 779.29 680.34
  A 15.48 15.43 -0.2 0 1 763.86 695.83
  L 753.22 695.86
  A 1.00 1.00 0.0 0 1 752.22 694.87
  L 752.10 662.99
  Z"
/>
<path fill="#09543d" d="
  M 320.59 803.71
  C 324.85 806.54 332.14 808.06 337.29 806.12
  C 340.44 804.94 341.54 802.08 338.85 799.61
  Q 337.48 798.35 334.40 797.61
  C 329.90 796.53 323.14 795.19 319.80 791.77
  Q 318.32 790.26 317.88 787.11
  Q 316.73 778.92 325.04 776.17
  C 331.69 773.97 340.59 774.22 346.59 778.50
  A 0.65 0.64 35.7 0 1 346.74 779.41
  L 344.00 783.17
  A 0.81 0.81 0.0 0 1 342.98 783.41
  Q 337.55 780.67 331.25 780.89
  C 326.03 781.08 321.77 786.83 328.75 789.28
  C 331.93 790.40 337.80 791.47 342.37 793.73
  C 349.90 797.47 350.15 806.61 343.07 810.79
  C 339.56 812.85 336.44 812.84 332.14 812.94
  Q 323.59 813.14 316.34 808.23
  A 0.38 0.38 0.0 0 1 316.28 807.65
  L 320.18 803.75
  A 0.32 0.32 0.0 0 1 320.59 803.71
  Z"
/>
<path fill="#09543d" d="
  M 454.03 809.17
  Q 442.25 815.85 430.79 811.47
  Q 418.49 806.77 418.35 794.04
  C 418.27 787.41 422.39 780.12 428.37 777.37
  Q 440.88 771.64 453.33 778.53
  A 0.88 0.87 36.8 0 1 453.53 779.91
  L 450.26 783.18
  A 0.97 0.96 36.7 0 1 449.11 783.34
  C 438.85 777.75 423.97 782.63 426.51 796.75
  C 428.64 808.59 442.60 808.78 450.68 803.34
  A 0.24 0.24 0.0 0 1 451.03 803.42
  L 454.11 808.86
  A 0.22 0.22 0.0 0 1 454.03 809.17
  Z"
/>
<path fill="#09543d" d="
  M 264.89 776.01
  A 0.36 0.36 0.0 0 1 265.25 775.65
  Q 280.54 775.50 283.47 775.61
  C 289.50 775.84 296.39 778.39 297.26 785.16
  C 299.23 800.49 282.78 799.20 272.94 799.09
  A 0.64 0.64 0.0 0 0 272.29 799.73
  L 272.29 811.87
  A 0.58 0.57 90.0 0 1 271.72 812.45
  L 265.52 812.45
  A 0.63 0.63 0.0 0 1 264.89 811.82
  L 264.89 776.01
  Z
  M 272.32 782.10
  L 272.36 792.50
  A 0.64 0.64 0.0 0 0 273.00 793.14
  L 282.77 793.10
  A 7.17 5.62 -0.2 0 0 289.92 787.46
  L 289.92 787.02
  A 7.17 5.62 -0.2 0 0 282.73 781.42
  L 272.96 781.46
  A 0.64 0.64 0.0 0 0 272.32 782.10
  Z"
/>
<path fill="#09543d" d="
  M 383.68 790.51
  Q 383.89 790.51 383.94 790.43
  Q 389.25 783.11 394.40 775.78
  A 0.54 0.54 0.0 0 1 394.85 775.54
  L 402.97 775.54
  A 0.08 0.07 56.5 0 1 403.03 775.66
  L 388.01 796.24
  A 2.81 2.77 -27.1 0 0 387.48 797.84
  L 387.41 811.66
  A 0.75 0.74 88.1 0 1 386.73 812.39
  Q 386.50 812.41 383.67 812.41
  Q 380.83 812.41 380.60 812.39
  A 0.75 0.74 -88.1 0 1 379.92 811.66
  L 379.86 797.84
  A 2.81 2.77 27.2 0 0 379.33 796.24
  L 364.32 775.65
  A 0.08 0.07 55.6 0 1 364.38 775.53
  L 372.50 775.53
  A 0.54 0.54 0.0 0 1 372.95 775.77
  Q 378.10 783.11 383.40 790.43
  Q 383.46 790.51 383.68 790.51
  Z"
/>
<path fill="#09543d" d="
  M 494.11 790.91
  Q 501.57 790.92 503.81 790.75
  A 0.75 0.74 87.7 0 0 504.49 790.00
  L 504.49 776.07
  A 0.65 0.65 0.0 0 1 505.15 775.42
  L 511.26 775.50
  A 0.73 0.73 0.0 0 1 511.98 776.24
  Q 512.02 776.90 512.01 793.92
  Q 512.00 810.94 511.95 811.60
  A 0.73 0.73 0.0 0 1 511.23 812.34
  L 505.12 812.41
  A 0.65 0.65 0.0 0 1 504.46 811.76
  L 504.48 797.83
  A 0.75 0.74 -87.6 0 0 503.80 797.08
  Q 501.57 796.91 494.11 796.90
  Q 486.64 796.89 484.41 797.06
  A 0.75 0.74 87.7 0 0 483.73 797.81
  L 483.73 811.74
  A 0.65 0.65 0.0 0 1 483.07 812.39
  L 476.96 812.31
  A 0.73 0.73 0.0 0 1 476.24 811.57
  Q 476.20 810.91 476.21 793.89
  Q 476.22 776.87 476.27 776.21
  A 0.73 0.73 0.0 0 1 476.99 775.48
  L 483.10 775.40
  A 0.65 0.65 0.0 0 1 483.76 776.06
  L 483.74 789.99
  A 0.75 0.74 -87.6 0 0 484.42 790.73
  Q 486.65 790.91 494.11 790.91
  Z"
/>
<rect fill="#09543d" x="536.58" y="775.49" width="7.44" height="36.88" rx="0.51"/>
<path fill="#09543d" d="
  M 585.84 775.53
  Q 588.12 775.53 589.27 775.61
  A 0.72 0.71 79.0 0 1 589.86 776.01
  L 606.92 812.21
  A 0.08 0.08 0.0 0 1 606.85 812.32
  L 599.33 812.32
  A 0.34 0.34 0.0 0 1 599.02 812.12
  L 595.55 804.77
  A 0.92 0.92 0.0 0 0 594.79 804.25
  Q 593.51 804.15 585.81 804.14
  Q 578.10 804.14 576.82 804.23
  A 0.92 0.92 0.0 0 0 576.06 804.75
  L 572.58 812.09
  A 0.34 0.34 0.0 0 1 572.27 812.29
  L 564.75 812.27
  A 0.08 0.08 0.0 0 1 564.68 812.16
  L 581.82 776.00
  A 0.72 0.71 -78.9 0 1 582.40 775.60
  Q 583.56 775.52 585.84 775.53
  Z
  M 579.10 797.69
  A 0.38 0.38 0.0 0 0 579.44 798.24
  L 592.08 798.30
  A 0.38 0.38 0.0 0 0 592.43 797.76
  L 586.18 784.13
  A 0.38 0.38 0.0 0 0 585.49 784.13
  L 579.10 797.69
  Z"
/>
<path fill="#09543d" d="
  M 635.02 775.44
  Q 643.29 775.39 651.35 775.52
  A 0.49 0.49 0.0 0 1 651.83 776.01
  L 651.83 780.93
  A 0.56 0.55 -90.0 0 1 651.28 781.49
  L 639.51 781.49
  A 0.72 0.71 0.0 0 0 638.79 782.20
  L 638.79 811.80
  A 0.55 0.54 86.7 0 1 638.31 812.35
  Q 637.95 812.39 635.13 812.40
  Q 632.31 812.41 631.95 812.37
  A 0.55 0.54 -87.0 0 1 631.47 811.82
  L 631.29 782.22
  A 0.72 0.71 -0.3 0 0 630.57 781.52
  L 618.80 781.59
  A 0.56 0.55 89.7 0 1 618.25 781.03
  L 618.22 776.11
  A 0.49 0.49 0.0 0 1 618.69 775.62
  Q 626.75 775.44 635.02 775.44
  Z"
/>
<path fill="#09543d" d="
  M 706.31 812.19
  A 0.15 0.15 0.0 0 1 706.19 812.43
  L 697.34 812.43
  A 0.50 0.46 -17.0 0 1 696.95 812.24
  L 687.25 799.14
  A 0.80 0.80 0.0 0 0 686.61 798.82
  L 679.97 798.82
  A 0.53 0.53 0.0 0 0 679.44 799.35
  L 679.44 811.83
  A 0.55 0.55 0.0 0 1 678.89 812.38
  L 672.46 812.38
  A 0.57 0.56 -0.0 0 1 671.89 811.82
  L 671.89 775.86
  A 0.37 0.36 0.0 0 1 672.26 775.50
  Q 688.41 775.43 691.95 775.60
  Q 695.88 775.79 699.78 778.00
  C 704.11 780.45 704.67 784.83 704.19 789.23
  C 703.62 794.39 699.84 796.64 695.31 798.15
  A 0.38 0.37 61.1 0 0 695.14 798.75
  L 706.31 812.19
  Z
  M 679.38 782.35
  L 679.44 792.09
  A 0.77 0.77 0.0 0 0 680.21 792.85
  L 689.91 792.80
  A 7.25 5.45 -0.3 0 0 697.13 787.31
  L 697.13 786.93
  A 7.25 5.45 -0.3 0 0 689.85 781.52
  L 680.15 781.57
  A 0.77 0.77 0.0 0 0 679.38 782.35
  Z"
/>
<path fill="#09543d" d="
  M 740.64 812.32
  Q 737.81 812.32 737.59 812.30
  A 0.75 0.74 -88.0 0 1 736.91 811.56
  L 736.87 797.79
  A 2.80 2.76 27.3 0 0 736.34 796.19
  L 721.42 775.64
  A 0.07 0.07 0.0 0 1 721.48 775.52
  L 729.57 775.54
  A 0.54 0.54 0.0 0 1 730.02 775.78
  Q 735.14 783.10 740.41 790.41
  Q 740.47 790.49 740.69 790.49
  Q 740.90 790.49 740.95 790.41
  Q 746.26 783.12 751.40 775.82
  A 0.54 0.54 0.0 0 1 751.85 775.58
  L 759.95 775.60
  A 0.07 0.07 0.0 0 1 760.00 775.72
  L 745.00 796.21
  A 2.80 2.76 -27.0 0 0 744.47 797.80
  L 744.37 811.58
  A 0.75 0.74 88.2 0 1 743.69 812.31
  Q 743.47 812.33 740.64 812.32
  Z"
/>
<path fill="#ffffff" d="
  M 272.32 782.10
  A 0.64 0.64 0.0 0 1 272.96 781.46
  L 282.73 781.42
  A 7.17 5.62 -0.2 0 1 289.92 787.02
  L 289.92 787.46
  A 7.17 5.62 -0.2 0 1 282.77 793.10
  L 273.00 793.14
  A 0.64 0.64 0.0 0 1 272.36 792.50
  L 272.32 782.10
  Z"
/>
<path fill="#ffffff" d="
  M 679.38 782.35
  A 0.77 0.77 0.0 0 1 680.15 781.57
  L 689.85 781.52
  A 7.25 5.45 -0.3 0 1 697.13 786.93
  L 697.13 787.31
  A 7.25 5.45 -0.3 0 1 689.91 792.80
  L 680.21 792.85
  A 0.77 0.77 0.0 0 1 679.44 792.09
  L 679.38 782.35
  Z"
/>
<path fill="#ffffff" d="
  M 579.10 797.69
  L 585.49 784.13
  A 0.38 0.38 0.0 0 1 586.18 784.13
  L 592.43 797.76
  A 0.38 0.38 0.0 0 1 592.08 798.30
  L 579.44 798.24
  A 0.38 0.38 0.0 0 1 579.10 797.69
  Z"
/>
</svg>
